<svg height="64" width="64" xmlns="http://www.w3.org/2000/svg" xmlns:xlink="http://www.w3.org/1999/xlink"><radialGradient id="a" cx="23.9375" cy="42.6875" gradientTransform="matrix(1 0 0 .24763 0 32.1168)" gradientUnits="userSpaceOnUse" r="23.75956"><stop offset="0"/><stop offset="1" stop-opacity="0"/></radialGradient><linearGradient id="b" gradientUnits="userSpaceOnUse" x1="16.394665" x2="48.377065" y1="26.459118" y2="-5.523282"><stop offset="0" stop-color="#ef2929"/><stop offset="1" stop-color="#c00"/></linearGradient><path d="m47.69706 42.6875a23.75956 5.8835783 0 1 1 -47.51911963 0 23.75956 5.8835783 0 1 1 47.51911963 0z" fill="url(#a)" fill-rule="evenodd" opacity=".4" transform="matrix(1.266689 0 0 1.04372 1.678632 11.4462)"/><g transform="translate(5.636365 .181818)"><path d="m52.999 55.037c0 .551-.45 1.001-1.001 1.001h-50.498c-.55 0-1-.45-1-1.001v-40.379c0-.55.45-1 1-1h50.498c.551 0 1.001.45 1.001 1z" fill="#eeeeec"/><path d="m52.999 55.037c0 .551-.45 1.001-1.001 1.001h-50.498c-.55 0-1-.45-1-1.001v-40.379c0-.55.45-1 1-1h50.498c.551 0 1.001.45 1.001 1z" fill="none" stroke="#555753" stroke-linecap="round" stroke-linejoin="round"/></g><path d="m6.136365 4.733818h52.499001v11.466h-52.499001z" fill="url(#b)" stroke="#a40000" stroke-linecap="round" stroke-linejoin="round"/><path d="m6.293365 5.234818h51.798v5.449h-51.798z" fill="#eeeeec" opacity=".201258"/><g stroke-linecap="round" stroke-linejoin="round"><path d="m51.357 53.541c0 .551-.45 1.001-1.001 1.001h-47.215c-.55 0-1-.45-1-1.001v-46.544c0-.55.45-1 1-1h47.215c.551 0 1.001.45 1.001 1z" fill="none" opacity=".6" stroke="#fff" transform="translate(5.636365 .181818)"/><path d="m12.305365.681818h5.597v8.395001h-5.597z" fill="#babdb6" stroke="#555753"/><path d="m46.869367.681818h5.597v8.395001h-5.597z" fill="#babdb6" stroke="#555753"/></g><g fill="#2e3436" stroke="#555753" transform="translate(5.636365 .181818)"><path d="m15.95 29.602h-.064l-4.102 1.827-.929-4.294 5.929-2.628h4.743v20.83h-5.577z"/><path d="m29.024 39.889c.865.448 2.948 1.25 4.935 1.25 2.052 0 3.397-.737 3.397-2.212 0-1.698-1.763-2.499-3.686-2.499h-2.146v-4.103h2.051c1.441 0 3.269-.448 3.269-1.891 0-1.058-.993-1.762-2.82-1.762-1.73 0-3.589.736-4.422 1.186l-1.09-4.134c1.314-.833 3.974-1.57 6.857-1.57 4.615 0 7.307 2.307 7.307 5.287 0 2.211-1.218 3.91-3.781 4.807v.064c2.468.417 4.454 2.275 4.454 4.967 0 3.813-3.492 6.409-8.908 6.409-2.852 0-5.224-.673-6.505-1.474z"/></g><g fill="#2e3436" transform="translate(5.636365 .181818)"><path d="m17.474 49.785.265 1.046c.05.194.085.385.115.579h.015c.03-.199.06-.375.11-.579l.245-1.046h.945l-.895 2.461h-.905l-.875-2.461z"/><path d="m20.134 51.331c.03.194.315.305.63.305.235 0 .455-.025.675-.095l.115.6c-.295.12-.615.16-.92.16-.865 0-1.355-.48-1.355-1.26 0-.575.37-1.311 1.275-1.311.795 0 1.135.585 1.135 1.26 0 .15-.02.28-.035.341zm.725-.61c0-.14-.065-.4-.35-.4-.265 0-.37.245-.385.4z"/><path d="m22.099 50.621c0-.325-.01-.61-.02-.836h.775l.04.315h.02c.09-.13.325-.37.735-.37.575 0 .885.391.885 1.065v1.45h-.9v-1.341c0-.284-.1-.449-.315-.449-.175 0-.255.119-.295.215-.02.045-.025.114-.025.18v1.396h-.9z"/><path d="m27.584 48.695v2.771c0 .305.01.615.02.78h-.8l-.035-.336h-.01c-.165.28-.46.391-.745.391-.57 0-1.045-.495-1.045-1.271-.005-.824.52-1.3 1.1-1.3.27 0 .495.08.605.235h.01v-1.271h.9zm-.9 2.151c0-.035 0-.075-.005-.115-.035-.17-.17-.314-.36-.314-.3 0-.435.27-.435.595 0 .375.185.575.435.575.18 0 .32-.13.35-.295.01-.051.015-.11.015-.165z"/><path d="m28.144 50.615c0-.39-.011-.625-.021-.83h.771l.029.445h.021c.13-.375.445-.5.655-.5.08 0 .114 0 .18.016v.845c-.065-.016-.135-.025-.23-.025-.265 0-.444.11-.489.311-.011.045-.016.095-.016.154v1.216h-.899v-1.632z"/><path d="m30.849 51.331c.029.194.314.305.63.305.234 0 .455-.025.675-.095l.115.6c-.295.12-.615.16-.92.16-.865 0-1.355-.48-1.355-1.26 0-.575.37-1.311 1.275-1.311.795 0 1.135.585 1.135 1.26 0 .15-.02.28-.035.341zm.725-.61c0-.14-.064-.4-.35-.4-.266 0-.37.245-.386.4z"/><path d="m35.303 48.695v2.771c0 .305.011.615.021.78h-.8l-.035-.336h-.01c-.165.28-.46.391-.745.391-.57 0-1.045-.495-1.045-1.271-.005-.824.52-1.3 1.1-1.3.271 0 .495.08.605.235h.01v-1.271h.899zm-.899 2.151c0-.035 0-.075-.005-.115-.035-.17-.17-.314-.36-.314-.3 0-.435.27-.435.595 0 .375.185.575.435.575.18 0 .32-.13.351-.295.01-.051.015-.11.015-.165v-.281z"/><path d="m36.774 49.105c0 .24-.181.43-.466.43-.279 0-.455-.189-.455-.43 0-.245.181-.425.461-.425.279.001.454.18.46.425zm-.91 3.141v-2.461h.899v2.461z"/></g><path d="m7.9234167 44s2.2207863-9.414818 25.6992713-9.76815c23.475644-.353288 23.362976-18.040088 23.362976-18.040088h-49.0622473z" fill="#fff" fill-rule="evenodd" opacity=".1"/></svg>