<svg xmlns="http://www.w3.org/2000/svg" viewBox="0 0 512 512" width="64" height="64">
  <rect x="64" y="8" stroke="#666" rx="16" stroke-width="16" width="384" height="496" fill="#F5F8F9"/>
  <path fill="#5F99D7" d="M396.9 139.4H132.1c-4.5 0-8.2-3.7-8.2-8.2v-74c0-4.5 3.7-8.2 8.2-8.2h264.8c4.5 0 8.2 3.7 8.2 8.2v74c0 4.5-3.7 8.2-8.2 8.2z"/>
  <path fill="#F07281" d="M237.8 299H132.1c-4.5 0-8.2-3.7-8.2-8.2v-99.2c0-4.5 3.7-8.2 8.2-8.2h105.7c4.5 0 8.2 3.7 8.2 8.2v99.2c0 4.6-3.7 8.2-8.2 8.2z"/>
  <g fill="#DCE7EF">
    <path d="M405.1 192.5H293.4c-5 0-9-4-9-9s4-9 9-9h111.7c5 0 9 4 9 9s-4 9-9 9zM405.1 231H293.4c-5 0-9-4-9-9s4-9 9-9h111.7c5 0 9 4 9 9s-4 9-9 9zM405.1 269.5H293.4c-5 0-9-4-9-9s4-9 9-9h111.7c5 0 9 4 9 9s-4 9-9 9zM405.1 308.1H293.4c-5 0-9-4-9-9s4-9 9-9h111.7c5 0 9 4 9 9 0 4.9-4 9-9 9zM405.1 346.6H293.4c-5 0-9-4-9-9s4-9 9-9h111.7c5 0 9 4 9 9s-4 9-9 9zM405.1 385.1H293.4c-5 0-9-4-9-9s4-9 9-9h111.7c5 0 9 4 9 9s-4 9-9 9zM405.1 423.7H293.4c-5 0-9-4-9-9s4-9 9-9h111.7c5 0 9 4 9 9s-4 9-9 9zM405.1 462.2H293.4c-5 0-9-4-9-9s4-9 9-9h111.7c5 0 9 4 9 9s-4 9-9 9zM246 346.6H123.9c-5 0-9-4-9-9s4-9 9-9H246c5 0 9 4 9 9s-4 9-9 9zM246 385.1H123.9c-5 0-9-4-9-9s4-9 9-9H246c5 0 9 4 9 9s-4 9-9 9zM246 423.7H123.9c-5 0-9-4-9-9s4-9 9-9H246c5 0 9 4 9 9 0 4.9-4 9-9 9zM246 462.2H123.9c-5 0-9-4-9-9s4-9 9-9H246c5 0 9 4 9 9s-4 9-9 9z"/>
  </g>
  <rect fill="#E8EDF2" x="72" y="16" rx="16" width="96" height="480" opacity=".5"/>
  <g transform="scale(4) translate(64)"
    stroke-width=".5"><circle fill="#4caf50" cx="32" cy="32" r="32"/><path fill="#fff" d="M54.748 26.293c-.632-.633-1.4-.949-2.304-.949H38.352V11.252c0-.903-.316-1.671-.949-2.304C36.771 8.316 36.003 8 35.1 8h-6.503c-.903 0-1.671.316-2.303.948-.633.633-.949 1.4-.949 2.304v14.092H11.252c-.903 0-1.671.317-2.304.949-.632.632-.948 1.4-.948 2.303v6.505c0 .903.316 1.67.948 2.303.633.632 1.4.948 2.304.948h14.092v14.093c0 .903.316 1.672.948 2.304.633.632 1.4.948 2.304.948H35.1c.904 0 1.671-.316 2.304-.948.632-.633.948-1.4.948-2.304V38.352h14.092c.904 0 1.672-.316 2.304-.948.632-.632.948-1.4.948-2.303v-6.505c0-.903-.315-1.671-.948-2.303z"/></g>
</svg>
