<svg xmlns="http://www.w3.org/2000/svg" viewBox="0 0 64 64">
  <path d="M51.5 62.6H12.9c-2.8 0-5-2.3-5-5V7c0-2.8 2.3-5 5-5h38.5c2.8 0 5 2.2 5 5v50.6c.1 2.7-2.2 5-4.9 5z" fill="#fff" stroke="#666" stroke-width="2.35" stroke-miterlimit="10"/>
  <path d="M34.7 13.5h15.1v15.1H34.7V13.5z" fill="#e895b7"/>
  <path d="M14.6 42.4h35.2m-35.2 8.7h35.2M14.6 33.7h35.2M14.6 16.3h17m-17 8.7h17" fill="#888" stroke="#888" stroke-width="3" stroke-miterlimit="10"/>
  <g transform="matrix(4 0 0 4 256 0)">
    <circle cx="-52" cy="4" r="4" fill="#4caf50"/>
    <path d="M-49.2 3.3c-.1-.1-.2-.1-.3-.1h-1.8V1.4c0-.1 0-.2-.1-.3 0-.1-.1-.1-.2-.1h-.8c-.1 0-.2 0-.3.1-.1.1-.1.2-.1.3v1.8h-1.8c-.1 0-.2 0-.3.1-.1.1-.1.2-.1.3v.8c0 .1 0 .2.1.3.1.1.2.1.3.1h1.8v1.8c0 .1 0 .2.1.3.1.1.2.1.3.1h.8c.1 0 .2 0 .3-.1.1-.1.1-.2.1-.3V4.8h1.8c.1 0 .2 0 .3-.1.1-.1.1-.2.1-.3v-.8c0-.1-.1-.2-.2-.3z" fill="#fff"/>
  </g>
</svg>
