<svg xmlns="http://www.w3.org/2000/svg" viewBox="0 0 512 512" width="64" height="64">
  <rect x="64" y="8" stroke="#666" rx="16" stroke-width="16" width="384" height="496" fill="#F5F8F9"/>
  <path fill="#5F99D7" d="M396.9 139.4H132.1c-4.5 0-8.2-3.7-8.2-8.2v-74c0-4.5 3.7-8.2 8.2-8.2h264.8c4.5 0 8.2 3.7 8.2 8.2v74c0 4.5-3.7 8.2-8.2 8.2z"/>
  <path fill="#F07281" d="M237.8 299H132.1c-4.5 0-8.2-3.7-8.2-8.2v-99.2c0-4.5 3.7-8.2 8.2-8.2h105.7c4.5 0 8.2 3.7 8.2 8.2v99.2c0 4.6-3.7 8.2-8.2 8.2z"/>
  <g fill="#DCE7EF">
    <path d="M405.1 192.5H293.4c-5 0-9-4-9-9s4-9 9-9h111.7c5 0 9 4 9 9s-4 9-9 9zM405.1 231H293.4c-5 0-9-4-9-9s4-9 9-9h111.7c5 0 9 4 9 9s-4 9-9 9zM405.1 269.5H293.4c-5 0-9-4-9-9s4-9 9-9h111.7c5 0 9 4 9 9s-4 9-9 9zM405.1 308.1H293.4c-5 0-9-4-9-9s4-9 9-9h111.7c5 0 9 4 9 9 0 4.9-4 9-9 9zM405.1 346.6H293.4c-5 0-9-4-9-9s4-9 9-9h111.7c5 0 9 4 9 9s-4 9-9 9zM405.1 385.1H293.4c-5 0-9-4-9-9s4-9 9-9h111.7c5 0 9 4 9 9s-4 9-9 9zM405.1 423.7H293.4c-5 0-9-4-9-9s4-9 9-9h111.7c5 0 9 4 9 9s-4 9-9 9zM405.1 462.2H293.4c-5 0-9-4-9-9s4-9 9-9h111.7c5 0 9 4 9 9s-4 9-9 9zM246 346.6H123.9c-5 0-9-4-9-9s4-9 9-9H246c5 0 9 4 9 9s-4 9-9 9zM246 385.1H123.9c-5 0-9-4-9-9s4-9 9-9H246c5 0 9 4 9 9s-4 9-9 9zM246 423.7H123.9c-5 0-9-4-9-9s4-9 9-9H246c5 0 9 4 9 9 0 4.9-4 9-9 9zM246 462.2H123.9c-5 0-9-4-9-9s4-9 9-9H246c5 0 9 4 9 9s-4 9-9 9z"/>
  </g>
  <rect fill="#E8EDF2" x="72" y="16" rx="16" width="96" height="480" opacity=".5"/>
</svg>
