<svg xmlns="http://www.w3.org/2000/svg" viewBox="0 0 64 64">
  <g transform="translate(-7 0)">
    <rect x="8" y="2" width="48" height="60" fill="#fff" stroke="#666" stroke-width="2"  rx="5"/>
    <g>
      <rect x="16" y="13" width="16" height="16" fill="#e895b7" />
      <rect x="36" y="16" width="12" height="3" fill="#888" />
      <rect x="36" y="24" width="12" height="3" fill="#888" />
      <rect x="16" y="32" width="32" height="3" fill="#888" />
      <rect x="16" y="40" width="32" height="3" fill="#888" />
      <rect x="16" y="48" width="32" height="3" fill="#888" />
    </g>
  </g>
  <g transform="matrix(4 0 0 4 256 0)">
    <circle cx="-52" cy="4" r="4" fill="#4caf50"/>
    <path d="M-49.2 3.3c-.1-.1-.2-.1-.3-.1h-1.8V1.4c0-.1 0-.2-.1-.3 0-.1-.1-.1-.2-.1h-.8c-.1 0-.2 0-.3.1-.1.1-.1.2-.1.3v1.8h-1.8c-.1 0-.2 0-.3.1-.1.1-.1.2-.1.3v.8c0 .1 0 .2.1.3.1.1.2.1.3.1h1.8v1.8c0 .1 0 .2.1.3.1.1.2.1.3.1h.8c.1 0 .2 0 .3-.1.1-.1.1-.2.1-.3V4.8h1.8c.1 0 .2 0 .3-.1.1-.1.1-.2.1-.3v-.8c0-.1-.1-.2-.2-.3z" fill="#fff"/>
  </g>
</svg>
