<svg viewBox="0 0 512 512" xmlns="http://www.w3.org/2000/svg" width="64" height="64">
	<circle cx="256" cy="256" r="256" fill="#365e7d" />
	<g id="body">
		<path fill="#C5BCB6" d="M425.063 345.853v100.953c-45.133 40.17-104.541 64.56-169.706 64.56-65.41 0-125.038-24.58-170.226-65.026V345.853c0-17.237 11.837-32.526 29.456-38.144l94.156-23.73h92.704l94.156 23.73c17.623 5.618 29.46 20.91 29.46 38.144z" />
		<path fill="#9D8E85" d="M282.705 509.914a257.367 257.367 0 01-27.348 1.452c-65.41 0-125.038-24.58-170.226-65.026V345.853c0-17.237 11.837-32.526 29.456-38.144l94.156-23.73h54.807l-94.156 23.73c-17.62 5.618-29.457 20.907-29.457 38.144V446.34c38.775 34.721 88.182 57.738 142.768 63.574z" />
	</g>
  <g id="head">
    <path fill="#ffcebf" d="M170.237 183.604v29.148c0 46.688 38.11 84.535 85.12 84.535 47.01 0 85.12-37.847 85.12-84.535v-29.148c0-46.688-38.11-84.535-85.12-84.535-47.01 0-85.12 37.847-85.12 84.535z"/>
    <path fill="#ffb09e" d="M282.76 292.813c-8.604 2.905-17.81 4.466-27.403 4.466-47.023 0-85.112-37.844-85.112-84.538v-29.13c0-23.346 9.536-44.474 24.938-59.79 15.401-15.293 36.665-24.747 60.177-24.747 9.592 0 18.798 1.562 27.403 4.466-12.496 4.22-23.647 11.236-32.774 20.278-15.4 15.319-24.937 36.444-24.937 59.791v29.13c-.003 37.16 24.14 68.729 57.709 80.074z"/>
  </g>
</svg>
