<svg version="1.1"
		 width="64"
		 height="64"
		 xmlns="http://www.w3.org/2000/svg"
		 viewBox="0 0 64 64">
	<path fill="#e5ab1a" d="M2.7 7.7H62v12.8H2.7z"/>
	<circle fill="#fff" cx="9.6" cy="14.1" r="4.6"/>
	<path fill="#aa7705" d="M53.5 7.7H62v12.8h-8.5z"/>
	<path fill="#e5ab1a" d="M2.7 25.2H62V38H2.7z"/>
	<circle fill="#fff" cx="9.6" cy="31.6" r="4.6"/>
	<path fill="#aa7705" d="M53.5 25.2H62V38h-8.5z"/>
	<path fill="#e5ab1a" d="M2.7 42.7H62v12.8H2.7z"/>
	<circle fill="#fff" cx="9.6" cy="49.1" r="4.6"/>
	<path fill="#aa7705" d="M53.5 42.7H62v12.8h-8.5z"/>
	<g transform="scale(2.666)">
		<path stroke="#fff" stroke-width=".984375" stroke-opacity=".75"
					d="M22.579 18.073c.026-.203.062-.405.062-.617s-.037-.412-.062-.617l1.181-.895a.655.655 0 00.172-.85l-1.062-1.838a.655.655 0 00-.823-.277l-1.36.575a4.928 4.928 0 00-1.076-.639l-.18-1.446a.654.654 0 00-.65-.575h-2.123c-.33 0-.61.245-.65.575l-.182 1.446c-.39.163-.743.387-1.075.64l-1.36-.576a.655.655 0 00-.824.277l-1.062 1.838a.655.655 0 00.172.85l1.182.895c-.027.204-.062.406-.062.617s.037.412.062.617l-1.182.895a.655.655 0 00-.172.85l1.062 1.838a.655.655 0 00.823.277l1.361-.575c.332.252.685.477 1.075.64l.181 1.446c.04.328.32.575.65.575h2.122c.331 0 .61-.247.651-.575l.181-1.447c.39-.162.743-.387 1.075-.639l1.361.575c.305.129.658.01.823-.277l1.062-1.837a.655.655 0 00-.172-.85z"
					fill="#1d83d4"/>
		<circle cx="17.705" cy="17.455" r="2.625" fill="#fff"/>
	</g>
</svg>
