<svg version="1.1" id="Calque_2_1_" xmlns="http://www.w3.org/2000/svg" x="0" y="0" viewBox="0 0 64 64" xml:space="preserve"><style>.st0{fill:#e5ab1a}.st1{fill:#fff}.st2{fill:#aa7705}</style><path class="st0" d="M2.7 7.7H62v12.8H2.7V7.7z"/><circle class="st1" cx="9.6" cy="14.1" r="4.6"/><path class="st2" d="M53.5 7.7H62v12.8h-8.5V7.7z"/><path class="st0" d="M2.7 25.2H62V38H2.7V25.2z"/><circle class="st1" cx="9.6" cy="31.6" r="4.6"/><path class="st2" d="M53.5 25.2H62V38h-8.5V25.2z"/><g><path class="st0" d="M2.7 42.7H62v12.8H2.7V42.7z"/><circle class="st1" cx="9.6" cy="49.1" r="4.6"/><path class="st2" d="M53.5 42.7H62v12.8h-8.5V42.7z"/></g><g><path id="svg_4" d="M30.4 42c-.1.6-.2 1.2-.2 1.8 0 .6.1 1.2.2 1.8l-3.5 2.7c-.8.6-1 1.7-.5 2.5l3.2 5.5c.5.9 1.5 1.2 2.5.8l4.1-1.7c1 .8 2.1 1.4 3.2 1.9l.5 4.3c.1 1 1 1.7 1.9 1.7h6.3c1 0 1.8-.7 1.9-1.7l.6-4.3c1.2-.5 2.2-1.2 3.2-1.9l4.1 1.7c.9.4 2 0 2.5-.8l3.2-5.5c.5-.9.3-1.9-.5-2.5l-3.5-2.7c.1-.6.2-1.2.2-1.8 0-.6-.1-1.2-.2-1.8l3.5-2.7c.8-.6 1-1.7.5-2.5l-3.2-5.5c-.5-.9-1.5-1.2-2.5-.8l-4.1 1.7c-1-.8-2-1.4-3.2-1.9L50 26c-.1-1-1-1.7-1.9-1.7h-6.3c-1 0-1.8.7-1.9 1.7l-.5 4.3c-1.2.5-2.2 1.2-3.2 1.9L32 30.4c-.9-.4-2 0-2.5.8l-3.2 5.5c-.5.9-.3 1.9.5 2.5 0 .1 3.6 2.8 3.6 2.8z" fill="#1d83d4" stroke="#fff" stroke-width=".984" stroke-opacity=".75"/><circle id="svg_5" class="st1" cx="44.9" cy="43.8" r="7.8"/></g></svg>