<svg xmlns="http://www.w3.org/2000/svg" viewBox="0 0 64 64"><style>.st0{fill:#e5ab1a}.st1{fill:#fff}.st2{fill:#aa7705}</style><g id="Calque_2"><path class="st0" d="M2.7 3.7H62v12.8H2.7z"/><circle class="st1" cx="9.6" cy="10.1" r="4.6"/><path class="st2" d="M53.5 3.7H62v12.8h-8.5z"/><g><path class="st0" d="M2.7 21.2H62V34H2.7z"/><circle class="st1" cx="9.6" cy="27.6" r="4.6"/><path class="st2" d="M53.5 21.2H62V34h-8.5z"/></g><g><path class="st0" d="M2.7 38.7H62v12.8H2.7z"/><circle class="st1" cx="9.6" cy="45.1" r="4.6"/><path class="st2" d="M53.5 38.7H62v12.8h-8.5z"/></g></g><path d="M60.6 37.8l-5.1-.5c-.2 0-.3-.1-.4-.3-.2-.6-.4-1.1-.7-1.7-.1-.2 0-.3 0-.5l3.2-4c.5-.6.5-1.5-.1-2.1l-3.1-3.1c-.6-.6-1.5-.6-2.1-.1l-4 3.2c-.1.1-.3.1-.5 0-.6-.3-1.1-.5-1.7-.7-.2 0-.3-.2-.3-.4l-.5-5.1c-.1-.8-.8-1.4-1.6-1.4h-4.4c-.8 0-1.5.6-1.6 1.4l-.5 5.1c0 .2-.1.3-.3.4-.6.2-1.1.4-1.7.7-.2.1-.3 0-.5 0l-4-3.2c-.6-.5-1.5-.5-2.1.1l-3.1 3.1c-.6.6-.6 1.5-.1 2.1l3.2 4c.1.1.1.3 0 .5-.3.6-.5 1.1-.7 1.7 0 .2-.2.3-.4.3l-5.1.5c-.8.1-1.4.8-1.4 1.6v4.4c0 .8.6 1.5 1.4 1.6l5.1.5c.2 0 .3.1.4.3.2.6.4 1.1.7 1.7.1.2 0 .3 0 .5l-3.2 4c-.4.6-.4 1.5.2 2.1l3.1 3.1c.6.6 1.5.6 2.1.1l4-3.2c.1-.1.3-.1.5 0 .6.3 1.1.5 1.7.7.2 0 .3.2.3.4l.5 5.1c.1.8.8 1.4 1.6 1.4h4.4c.8 0 1.5-.6 1.6-1.4l.5-5.1c0-.2.1-.3.3-.4.6-.2 1.1-.4 1.7-.7.2-.1.3 0 .5 0l4 3.2c.6.5 1.5.5 2.1-.1l3.1-3.1c.6-.6.6-1.5.1-2.1l-3.2-4c-.1-.1-.1-.3 0-.5.3-.6.5-1.1.7-1.7 0-.2.2-.3.4-.3l5.1-.5c.8-.1 1.4-.8 1.4-1.6v-4.3c-.1-.9-.7-1.6-1.5-1.7zm-19 12.5c-4.8 0-8.7-3.9-8.7-8.7s3.9-8.7 8.7-8.7 8.7 3.9 8.7 8.7-3.9 8.7-8.7 8.7z" fill="#54e360" stroke="#000" stroke-width="4" stroke-opacity=".65" id="Calque_3"/></svg>