<svg viewBox="0 0 512 512"
		 width="64"
		 height="64"
		 xmlns="http://www.w3.org/2000/svg">
  <path fill="#88b337" d="M508.4 313a42 42 0 01-10.9 15.8l-.6.6a44.2 44.2 0 01-30.5 12h-61c-3.7 0-7-2-9-5L386.2 320 343 251.1a9.7 9.7 0 01-1.3-8.3c.7-3 2.5-5.4 5.1-6.8l96-53.4c5.2-2.7 11.6-.8 14.5 4.3l49.5 88.3a43.8 43.8 0 011.5 37.8zM278.7 87.3l-9 12.5-47.6 66.4c-2 2.8-5.2 4.5-8.7 4.5-1.8 0-3.6-.5-5.1-1.3l-117.4-64c-2.7-1.5-4.7-4-5.3-7-.7-3.1 0-6.3 2-8.8l45.6-60.8A69.8 69.8 0 01191.4.2a72 72 0 0157 31L278.7 75c2.5 3.7 2.5 8.5 0 12.2zM210 295.9c-3.3 3-8 3.7-12 1.7L164.7 281l-19.4 39-7.7 15.4a11 11 0 01-9.6 6H45.7A43.6 43.6 0 0115 329.1l-.5-.4c-4.9-4.6-8.7-10-11.3-16.3a45.6 45.6 0 011.7-37l35.5-70.7-37.2-37.3a10.7 10.7 0 017.5-18.1h138.7c4.3 0 8.1 2.6 9.8 6.6l53.3 128a11 11 0 01-2.5 11.9z"/>
  <path fill="#6a9923" d="M213.4 330.7v128c0 5.9-4.8 10.6-10.7 10.6H151a74 74 0 01-61.3-32.2l-7.9-11.5-.8-.8c.2 0-4-6-8.1-12-2-2.6-3.4-5.1-5-7-5.5-8.1-8.5-12.2-7.2-10.5-1-1.7-2.1-3-2.5-3.8l-.2-.2c-.9-1.3-1.2-1.7-1.2-1.9l-.3-.3-.3-.4L15 329.2l-.5-.4-11.3-16.3c-3.2-8.3-4-17.4-2-26.2l28.7 27.5c4.2 4.1 10 6.4 15.8 6.2h157c5.9 0 10.7 4.8 10.7 10.7zM447.2 57.4l-53.3 128a10.7 10.7 0 01-11.8 6.4l-117.3-21.3c-4.5-1-8-4.5-8.8-9-.6-4.6 1.8-9 6-11l31.6-15.9-24-34.8L231 43.1a50.3 50.3 0 00-41-21.3h-50.8a69.4 69.4 0 0139.7-21l9.6-.6h3L329.2 0c18 0 34.7 8.8 44.6 23.7l24.5 37.1 34.4-17c4-2 8.7-1.3 12 1.6a11 11 0 012.5 12zM508.4 313l-10 14.5-.9 1.3-.6.6-74.2 107.7a74.3 74.3 0 01-61.5 32.2h-19.8v32c0 4.5-2.8 8.4-6.9 10a12 12 0 01-3.8.7c-3 0-6-1.3-7.9-3.6l-85.3-96a10.3 10.3 0 01-.7-13.2l85.4-117.4a10.5 10.5 0 0119.2 6.2v32h125c5.9.2 11.6-2 15.8-6.2l28.8-27.5c2 9 1 18.3-2.6 26.7z"/>
</svg>
