<svg
	version="1.1"
	xmlns="http://www.w3.org/2000/svg"
	width="64"
	height="64"
	viewBox="0 0 512 512">
	<rect y="144" fill="#E0E0E2" width="512" height="360"/>
	<rect y="40" fill="#FF5023" width="512" height="120"/>
	<rect x="4" y="44" fill="none" width="504" height="456" stroke="#666" stroke-width="8" opacity="0.75"/>
	<rect x="80" y="0" fill="#c4c4c9" width="48" height="96"/>
	<rect x="384" y="0" fill="#c4c4c9" width="48" height="96"/>
	<g fill="#576666">
		<rect x="176" y="200" width="56" height="56"/>
		<rect x="72" y="296" width="56" height="56"/>
		<rect x="176" y="296" width="56" height="56"/>
		<rect x="72" y="392" width="56" height="56"/>
		<rect x="176" y="392" width="56" height="56"/>
		<rect x="280" y="200" width="56" height="56"/>
		<rect x="384" y="200" width="56" height="56"/>
		<rect x="280" y="296" width="56" height="56"/>
		<rect x="384" y="296" width="56" height="56"/>
		<rect x="280" y="392" width="56" height="56"/>
	</g>
</svg>
