<svg height="64" viewBox="0 0 64 64" width="64" xmlns="http://www.w3.org/2000/svg" xmlns:xlink="http://www.w3.org/1999/xlink"><radialGradient id="a" cx="23.9375" cy="42.6875" gradientTransform="matrix(1 0 0 .24763 0 32.1168)" gradientUnits="userSpaceOnUse" r="23.75956"><stop offset="0"/><stop offset="1" stop-opacity="0"/></radialGradient><linearGradient id="b" gradientUnits="userSpaceOnUse" x1="18.742199" x2="47.365599" y1="26.0874" y2="-2.536"><stop offset="0" stop-color="#2e3436"/><stop offset=".0257" stop-color="#3f4446"/><stop offset=".1209" stop-color="#797d7e"/><stop offset=".213" stop-color="#a9abac"/><stop offset=".2998" stop-color="#ced0d0"/><stop offset=".3799" stop-color="#e9eaea"/><stop offset=".4509" stop-color="#f9f9fa"/><stop offset=".5056" stop-color="#fff"/><stop offset=".5833" stop-color="#fbfcfc"/><stop offset=".6525" stop-color="#f1f1f1"/><stop offset=".7186" stop-color="#dedfe0"/><stop offset=".7826" stop-color="#c5c6c7"/><stop offset=".8453" stop-color="#a4a6a7"/><stop offset=".9069" stop-color="#7b7f80"/><stop offset=".9664" stop-color="#4c5153"/><stop offset="1" stop-color="#2e3436"/></linearGradient><linearGradient id="c" gradientUnits="userSpaceOnUse" x1="17.256399" x2="49.238799" y1="30.2744" y2="-1.708"><stop offset="0" stop-color="#ef2929"/><stop offset="1" stop-color="#c00"/></linearGradient><path d="m47.69706 42.6875a23.75956 5.8835783 0 1 1 -47.51911963 0 23.75956 5.8835783 0 1 1 47.51911963 0z" fill="url(#a)" fill-rule="evenodd" opacity=".4" transform="matrix(1.266689 0 0 1.04372 1.678632 12.75994)"/><path d="m7.000999 17.658001h52.499001v42.380001h-52.499001z" fill="#eeeeec" stroke="#555753" stroke-linecap="round" stroke-linejoin="round"/><path d="m7.000999 8.552h52.499001v11.466h-52.499001z" fill="url(#c)" stroke="#a40000" stroke-linecap="round" stroke-linejoin="round"/><path d="m7.157999 9.053h51.798v5.449h-51.798z" fill="url(#b)" opacity=".257862"/><path d="m8.641999 9.997h49.216v48.544998h-49.216z" fill="none" opacity=".8" stroke="#fff" stroke-linecap="round" stroke-linejoin="round"/><path d="m13.169999 4.5h5.597v8.395001h-5.597z" fill="#babdb6" stroke="#555753" stroke-linecap="round" stroke-linejoin="round"/><path d="m47.734001 4.5h5.597v8.395001h-5.597z" fill="#babdb6" stroke="#555753" stroke-linecap="round" stroke-linejoin="round"/><g fill="#2e3436"><path d="m13.083999 23.438h6.82v6.819h-6.82z"/><path d="m46.263999 23.438h6.819v6.819h-6.819z"/><path d="m35.203998 23.438h6.82v6.819h-6.82z"/><path d="m24.144998 23.438h6.82v6.819h-6.82z"/><path d="m13.083999 31.917h6.82v6.82h-6.82z"/><path d="m46.263999 31.917h6.819v6.82h-6.819z"/><path d="m35.203998 31.917h6.82v6.82h-6.82z"/><path d="m24.144998 31.917h6.82v6.82h-6.82z"/><path d="m13.083999 40.949001h6.82v6.82h-6.82z"/><path d="m46.263999 40.949001h6.819v6.82h-6.819z"/><path d="m35.203998 40.949001h6.82v6.82h-6.82z"/><path d="m24.144998 40.949001h6.82v6.82h-6.82z"/><path d="m13.083999 49.243999h6.82v6.82h-6.82z"/><path d="m46.263999 49.243999h6.819v6.82h-6.819z"/><path d="m35.203998 49.243999h6.82v6.82h-6.82z"/><path d="m24.144998 49.243999h6.82v6.82h-6.82z"/></g><path d="m8.7415988 48.267755s2.2207862-9.414818 25.6992712-9.76815c23.475644-.353288 23.362976-18.040088 23.362976-18.040088h-49.0622472z" fill="#fff" fill-rule="evenodd" opacity=".1"/></svg>