<svg version="1.1"
		 width="64"
		 height="64"
		 xmlns="http://www.w3.org/2000/svg" viewBox="0 0 480 480" xml:space="preserve">
  <path fill="#88B337" d="M100.5 463.6c6.4-3 12.2-7.1 17.2-12.1L235 334.2l-7.3-7.3a20.7 20.7 0 1129.3-29.3l7.3 7.3 29.3-29.3-88-88-29.3 29.3 7.3 7.3a20.7 20.7 0 11-29.3 29.3l-7.3-7.3L29.8 363.5c-5 5-9.1 10.8-12.1 17.2l82.8 82.9z"/>
  <path fill="#7BA825" d="M154.4 253.6l-7.3-7.3L29.8 363.5c-5 5-9.1 10.8-12.1 17.2l5.9 5.9c70.6-48.4 130.8-59.8 206.1-57.8l-2-2a20.7 20.7 0 1129.3-29.3l7.3 7.3 29.3-29.3-88-88-29.3 29.3 7.3 7.3a20.7 20.7 0 010 29.3c-8 8.3-21.1 8.3-29.2.2z"/>
  <path fill="#6B962A" d="M88.4 407.5l-14.7-14.7 102.6-102.6 14.7 14.7L88.4 407.5z"/>
  <g fill="#DEDEDE">
    <path d="M440.3 11.6L469.6 41l-29.3 44L411 99.6 264.4 246.2 235 216.9 381.7 70.3 396.3 41l44-29.4zM29.8 451.5a62.2 62.2 0 0070.8 12.1l-82.8-82.8a61.9 61.9 0 0012 70.7z"/>
  </g>
  <path fill="#C7C7C7" d="M264.4 246.2L235 216.9l22-22 29.3 29.3-21.9 22z"/>
  <path d="M249.7 304.9l7.3 7.3c4 4 10.6 4 14.7 0l29.3-29.3c4-4 4-10.6 0-14.7l-22-22 138.1-138.1L445 94.2c1.6-.8 3-2 4-3.5l29.3-44c2.7-4.1 2.2-9.6-1.3-13.1L447.6 4.3c-3.5-3.5-8.9-4-13-1.3l-44 29.3c-1.5 1-2.7 2.4-3.5 4l-13.9 27.9-138.2 138-22-22c-4-4-10.6-4-14.7 0L169 209.5c-4 4-4 10.6 0 14.7l7.3 7.3c4 4 4 10.6 0 14.7-4 4-10.6 4-14.7 0l-7.3-7.3c-4-4-10.6-4-14.7 0L22.4 356.2a71 71 0 00-14 19.9l-.2.2-.2.4C5 383.1 3 390 1.9 397l-.2 1.4c-.4 3.4-.6 6.8-.6 10.1v.9c.1 3.3.4 6.5.9 9.7l.1.9c.6 3.4 1.4 6.7 2.5 9.9l.4 1.2c1.1 3.2 2.4 6.4 3.9 9.4l.1.1c1.6 3 3.3 5.9 5.3 8.7l1.2 1.7c4 5.6 8.9 10.4 14.5 14.5l1.7 1.2c2.8 2 5.6 3.7 8.7 5.3l.1.1c3 1.5 6.2 2.8 9.4 3.9l1.2.4a65.2 65.2 0 0020.5 3.5h.9c3.4 0 6.8-.2 10.2-.6l1.4-.2c7-1 13.9-3.1 20.3-6.1l.4-.2.2-.2a71.4 71.4 0 0020-14l117.3-117.3c4-4 4-10.6 0-14.7l-7.3-7.3c-4-4-4-10.6 0-14.7a10.6 10.6 0 0114.7.3zM439 25l17.3 17.3-23.1 34.6-26.9 13.4a13 13 0 00-2.7 1.9L264.4 231.6l-14.7-14.7L389 77.6c.8-.8 1.4-1.7 1.9-2.7L404.3 48 439 25zM74.5 459.3l-2.1-.1a60 60 0 01-7.3-.7l-1.7-.2c-2.7-.6-5.4-1.3-7.9-2.3l-2.1-.8a53.4 53.4 0 01-7.5-3.9l-1.5-1c-5.2-3.5-9.7-8-13.2-13.2l-1-1.5a53.4 53.4 0 01-3.9-7.5l-.8-2.1a44.5 44.5 0 01-3.2-16.9l-.1-2.1c.1-2.2.3-4.3.6-6.5L81 458.7l-6.5.6zm145.9-125.1l-110 110a50.8 50.8 0 01-8.1 6.6L30.5 379c1.9-2.9 4.1-5.6 6.6-8.1l110-110a31.1 31.1 0 0044-44l14.7-14.7 73.3 73.3-14.7 14.7a31.2 31.2 0 00-44 0 31 31 0 000 44z"
				fill="#444"
	/>
  <path d="M88.4 407.5l-14.7-14.7 102.6-102.6 14.7 14.7L88.4 407.5z" opacity="0.25"/>
</svg>
