<svg height="512pt" viewBox="0 0 512 512.00072" width="512pt" xmlns="http://www.w3.org/2000/svg">
	<g transform="translate(-60 0)">
		<g>
			<path
				d="m379.137 0h-305.586c-8.284 0-15 6.716-15 15v368.214l14 98.786 121.691 30 199.896-15v-482c-.001-8.284-6.717-15-15.001-15z"
				fill="#edf5ff"/>
			<path d="m394.137 383.214h-335.586v113.786c0 8.284 6.716 15 15 15l152.793-.128 167.793-14.872z" fill="#A09EF1"/>
			<rect x="64" y="4" width="330" height="504" fill="none" stroke="#666" stroke-width="8" rx="8"/>
		</g>
		<g>
			<path
				d="m137.306 174.828c8.284 0 15-6.716 15-15 0-38.214 33.213-69.304 74.037-69.304 40.825 0 74.038 31.09 74.038 69.304 0 8.284 6.716 15 15 15s15-6.716 15-15c0-54.756-46.671-99.304-104.038-99.304-57.366 0-104.037 44.548-104.037 99.304 0 8.284 6.716 15 15 15z"
				fill="#A09EF1"/>
			<path
				d="m408.147 279.774c-7.515 0-14.61 1.84-20.855 5.092-7.704-14.043-22.634-23.585-39.75-23.585-7.515 0-14.61 1.84-20.856 5.092-7.703-14.044-22.632-23.585-39.75-23.585-5.368 0-10.522.939-15.305 2.661l-.001-71.119c-.001-24.965-20.317-45.276-45.299-45.276-24.975 0-45.295 20.319-45.296 45.294l-.005 101.622h-15.761c-24.975 0-45.294 20.318-45.296 45.293l-.007 80.718c0 2.776.77 5.497 2.224 7.861l42.292 68.745c12.63 20.531 35.451 33.285 59.555 33.285h156.061c40.446 0 73.352-32.905 73.352-73.351v-113.444c-.001-24.98-20.323-45.303-45.303-45.303z"
				fill="#f1d0a4"/>
		</g>
	</g>

	<g transform="scale(10) translate(27.5 27)">
		<path fill="#444"
		 d="M20.745 13.082c.047-.367.111-.732.111-1.114s-.066-.744-.111-1.113l2.133-1.617c.476-.36.609-1.019.31-1.535l-1.917-3.318a1.183 1.183 0 00-1.486-.5l-2.458 1.037c-.6-.455-1.237-.86-1.941-1.154l-.327-2.611A1.18 1.18 0 0013.886.119h-3.832c-.598 0-1.103.443-1.176 1.038l-.327 2.611c-.704.294-1.341.7-1.941 1.154L4.152 3.884a1.183 1.183 0 00-1.486.5L.75 7.704a1.183 1.183 0 00.31 1.535l2.133 1.617c-.047.367-.111.732-.111 1.114s.066.744.111 1.113L1.06 14.7a1.183 1.183 0 00-.31 1.536l1.917 3.318c.299.519.936.732 1.486.5l2.458-1.038c.6.455 1.237.86 1.941 1.154l.327 2.611a1.183 1.183 0 001.173 1.039h3.832c.598 0 1.103-.446 1.176-1.039l.327-2.611c.704-.294 1.341-.7 1.941-1.154l2.458 1.038c.55.232 1.187.019 1.486-.5l1.917-3.318a1.182 1.182 0 00-.31-1.536z" />
		<circle cx="12" cy="12" r="4.8" fill="#fff"/>
	</g>

</svg>