<svg xmlns="http://www.w3.org/2000/svg" viewBox="0 0 64 64" width="64" height="64">
  <rect x="7" y="1" width="48" height="60" fill="#fff" stroke="#666" stroke-width="2"  rx="5"/>
  <g>
    <rect x="16" y="12" width="16" height="16" fill="#e895b7" />
    <rect x="36" y="16" width="12" height="4" fill="#888" />
    <rect x="36" y="24" width="12" height="4" fill="#888" />
    <rect x="16" y="32" width="32" height="4" fill="#888" />
    <rect x="16" y="40" width="32" height="4" fill="#888" />
    <rect x="16" y="48" width="32" height="4" fill="#888" />
  </g>
  <g transform="scale(2.666)">
 		<path stroke="#fff" stroke-width=".984375" stroke-opacity=".75"
 					d="M22.579 18.073c.026-.203.062-.405.062-.617s-.037-.412-.062-.617l1.181-.895a.655.655 0 00.172-.85l-1.062-1.838a.655.655 0 00-.823-.277l-1.36.575a4.928 4.928 0 00-1.076-.639l-.18-1.446a.654.654 0 00-.65-.575h-2.123c-.33 0-.61.245-.65.575l-.182 1.446c-.39.163-.743.387-1.075.64l-1.36-.576a.655.655 0 00-.824.277l-1.062 1.838a.655.655 0 00.172.85l1.182.895c-.027.204-.062.406-.062.617s.037.412.062.617l-1.182.895a.655.655 0 00-.172.85l1.062 1.838a.655.655 0 00.823.277l1.361-.575c.332.252.685.477 1.075.64l.181 1.446c.04.328.32.575.65.575h2.122c.331 0 .61-.247.651-.575l.181-1.447c.39-.162.743-.387 1.075-.639l1.361.575c.305.129.658.01.823-.277l1.062-1.837a.655.655 0 00-.172-.85z"
 					fill="#1d83d4"/>
 		<circle cx="17.705" cy="17.455" r="2.625" fill="#fff"/>
 	</g>
</svg>
