<svg viewBox="0 0 512 512" xmlns="http://www.w3.org/2000/svg" width="64" height="64">
  <g transform="translate(-60)">
    <path d="M379.137 0H73.551c-8.284 0-15 6.716-15 15v368.214l14 98.786 121.691 30 199.896-15V15c-.001-8.284-6.717-15-15.001-15z" fill="#edf5ff"/>
    <path d="M394.137 383.214H58.551V497c0 8.284 6.716 15 15 15l152.793-.128L394.137 497z" fill="#A09EF1"/>
    <rect x="64" y="4" width="330" height="504" fill="none" stroke="#666" stroke-width="8" rx="8"/>
  </g>
  <path d="M77.306 174.828c8.284 0 15-6.716 15-15 0-38.214 33.213-69.304 74.037-69.304 40.825 0 74.038 31.09 74.038 69.304 0 8.284 6.716 15 15 15s15-6.716 15-15c0-54.756-46.671-99.304-104.038-99.304-57.366 0-104.037 44.548-104.037 99.304 0 8.284 6.716 15 15 15z" fill="#A09EF1"/>
  <path d="M348.147 279.774a45.03 45.03 0 00-20.855 5.092c-7.704-14.043-22.634-23.585-39.75-23.585-7.515 0-14.61 1.84-20.856 5.092-7.703-14.044-22.632-23.585-39.75-23.585a45.1 45.1 0 00-15.305 2.661l-.001-71.119c-.001-24.965-20.317-45.276-45.299-45.276-24.975 0-45.295 20.319-45.296 45.294l-.005 101.622h-15.761c-24.975 0-45.294 20.318-45.296 45.293l-.007 80.718c0 2.776.77 5.497 2.224 7.861l42.292 68.745c12.63 20.531 35.451 33.285 59.555 33.285h156.061c40.446 0 73.352-32.905 73.352-73.351V325.077c-.001-24.98-20.323-45.303-45.303-45.303z" fill="#f1d0a4"/>
  <g transform="scale(21.328)">
    <path stroke="#fff" stroke-width=".984" stroke-opacity=".75" d="M22.579 18.073c.026-.203.062-.405.062-.617s-.037-.412-.062-.617l1.181-.895a.655.655 0 00.172-.85l-1.062-1.838a.655.655 0 00-.823-.277l-1.36.575a4.928 4.928 0 00-1.076-.639l-.18-1.446a.654.654 0 00-.65-.575h-2.123c-.33 0-.61.245-.65.575l-.182 1.446c-.39.163-.743.387-1.075.64l-1.36-.576a.655.655 0 00-.824.277l-1.062 1.838a.655.655 0 00.172.85l1.182.895c-.027.204-.062.406-.062.617s.037.412.062.617l-1.182.895a.655.655 0 00-.172.85l1.062 1.838a.655.655 0 00.823.277l1.361-.575c.332.252.685.477 1.075.64l.181 1.446c.04.328.32.575.65.575h2.122c.331 0 .61-.247.651-.575l.181-1.447c.39-.162.743-.387 1.075-.639l1.361.575c.305.129.658.01.823-.277l1.062-1.837a.655.655 0 00-.172-.85z" fill="#1d83d4"/>
    <circle cx="17.705" cy="17.455" r="2.625" fill="#fff"/>
  </g>
</svg>
