<?xml version="1.0" encoding="UTF-8" standalone="no"?>
<svg
   xmlns:dc="http://purl.org/dc/elements/1.1/"
   xmlns:cc="http://creativecommons.org/ns#"
   xmlns:rdf="http://www.w3.org/1999/02/22-rdf-syntax-ns#"
   xmlns:svg="http://www.w3.org/2000/svg"
   xmlns="http://www.w3.org/2000/svg"
   xmlns:sodipodi="http://sodipodi.sourceforge.net/DTD/sodipodi-0.dtd"
   xmlns:inkscape="http://www.inkscape.org/namespaces/inkscape"
   width="64"
   height="64"
   viewBox="0 0 340.274 340.274"
   version="1.1"
   id="svg4"
   sodipodi:docname="config-xx.svg"
   inkscape:version="1.0.1 (1.0.1+r73)">
  <metadata
     id="metadata10">
    <rdf:RDF>
      <cc:Work
         rdf:about="">
        <dc:format>image/svg+xml</dc:format>
        <dc:type
           rdf:resource="http://purl.org/dc/dcmitype/StillImage" />
      </cc:Work>
    </rdf:RDF>
  </metadata>
  <defs
     id="defs8" />
  <sodipodi:namedview
     pagecolor="#ffffff"
     bordercolor="#666666"
     borderopacity="1"
     objecttolerance="10"
     gridtolerance="10"
     guidetolerance="10"
     inkscape:pageopacity="0"
     inkscape:pageshadow="2"
     inkscape:window-width="640"
     inkscape:window-height="480"
     id="namedview6"
     showgrid="false"
     inkscape:zoom="10.171875"
     inkscape:cx="32"
     inkscape:cy="32"
     inkscape:current-layer="svg4" />
  <path
     fill="#777"
     d="M293.63 124.392l-5.795-13.739c19.846-44.856 18.53-46.189 14.676-50.08l-25.353-24.77-2.516-2.12h-2.937c-1.55 0-6.173 0-44.712 17.48l-14.184-5.719C194.477 0 192.597 0 187.229 0h-35.766c-5.362 0-7.446-.006-24.448 45.606l-14.123 5.734c-26.044-10.997-41.318-16.564-45.44-16.564l-3.38.105-27.27 26.737c-4.139 3.891-5.583 5.263 15.401 49.425l-5.774 13.691C0 142.684 0 144.424 0 149.916v35.069c0 5.5 0 7.44 46.585 24.127l5.773 13.667c-19.843 44.832-18.51 46.178-14.655 50.032l25.353 24.8 2.522 2.168h2.951c1.525 0 6.092 0 44.685-17.516l14.16 5.758c18.334 45.438 20.217 45.427 25.597 45.427h35.772c5.47 0 7.41 0 24.463-45.59l14.195-5.74c26.014 11 41.253 16.586 45.349 16.586l3.404-.096 27.479-26.901c3.909-3.945 5.278-5.31-15.59-49.288l5.735-13.702c46.496-17.967 46.496-19.853 46.496-25.221v-35.03c-.005-5.519-.005-7.446-46.644-24.074zM170.128 225.061c-32.798 0-59.504-26.187-59.504-58.365 0-32.153 26.707-58.315 59.504-58.315 32.78 0 59.43 26.168 59.43 58.315-.005 32.178-26.655 58.365-59.43 58.365z"
     stroke-width=".5"
     id="path2"
     style="fill:#444444;fill-opacity:1" />
</svg>
