<svg version="1.1"
		 width="64"
		 height="64"
		 xmlns="http://www.w3.org/2000/svg"
		 viewBox="0 0 512 512">
  <circle cx="256" cy="256" r="256"/>
  <g transform="translate(2 -3)">
    <circle fill="#E5BDA7" cx="254.5" cy="259.3" r="245.3"/>
    <path fill="#DFAE91" d="M88.3 264.9c0-128 98-233 223.1-244.3a245.3 245.3 0 10-34.6 483A245.5 245.5 0 0188.3 264.9z"/>
    <g fill="#D79C7A">
      <circle cx="284.4" cy="168.6" r="26.1"/>
      <circle cx="183.6" cy="370.2" r="21"/>
      <circle cx="114.5" cy="278" r="35.4"/>
      <circle cx="157.5" cy="152.9" r="31.7"/>
      <circle cx="402.2" cy="217.1" r="22.5"/>
      <circle cx="261.9" cy="274.1" r="19.1"/>
      <circle cx="287.7" cy="404.7" r="27.4"/>
      <circle cx="379.7" cy="335.9" r="34.4"/>
    </g>
  </g>
  <path d="M249.3 168.6a35.1 35.1 0 1070.3 0 35.1 35.1 0 00-70.3 0zm52.2 0c0 9.4-7.7 17.1-17.1 17.1s-17.1-7.7-17.1-17.1 7.7-17.1 17.1-17.1 17.1 7.6 17.1 17.1zM213.5 370.2a30 30 0 10-59.8 0 30 30 0 0059.8 0zm-29.9 12c-6.6 0-12-5.4-12-12s5.4-12 12-12 12 5.4 12 12-5.4 12-12 12zM70.2 278a44.3 44.3 0 1088.6 0 44.3 44.3 0 00-88.6 0zm70.7 0a26.4 26.4 0 11-52.7 0 26.4 26.4 0 0152.7 0zM157.5 112.2a40.7 40.7 0 100 81.5 40.7 40.7 0 000-81.5zm0 63.5a22.7 22.7 0 010-45.4 22.7 22.7 0 010 45.4zM370.8 217.1a31.6 31.6 0 1063.1-.1 31.6 31.6 0 00-63.1.1zm31.4-13.5a13.5 13.5 0 110 27 13.5 13.5 0 010-27zM233.9 274.1a28 28 0 1056 0 28 28 0 00-56 0zm28-10.1c5.6 0 10.1 4.5 10.1 10.1s-4.5 10.1-10.1 10.1-10.1-4.5-10.1-10.1 4.5-10.1 10.1-10.1zM287.7 368.3a36.4 36.4 0 100 72.8 36.4 36.4 0 000-72.8zm0 54.9a18.5 18.5 0 110-37 18.5 18.5 0 010 37zM336.4 335.9a43.3 43.3 0 1086.6 0 43.3 43.3 0 00-86.6 0zm43.3-25.4a25.4 25.4 0 110 50.9 25.4 25.4 0 010-50.9zM229.7 73.1h-8.4c-5 0-9 4-9 9s4 9 9 9h8.4c5 0 9-4 9-9s-4-9-9-9zM330.1 91.2c0-5-4-9-9-9h-10.6c-5 0-9 4-9 9s4 9 9 9h10.6c4.9 0 9-4 9-9zM376.7 129.5h-8.4c-5 0-9 4-9 9s4 9 9 9h8.4c5 0 9-4 9-9s-4.1-9-9-9zM204.6 220.5h-7.9c-5 0-9 4-9 9s4 9 9 9h7.9c5 0 9-4 9-9s-4.1-9-9-9zM82.8 187.8h-6c-5 0-9 4-9 9s4 9 9 9h6c5 0 9-4 9-9s-4-9-9-9zM94.5 349.5c-5 0-9 4-9 9s4 9 9 9h4.7c5 0 9-4 9-9s-4-9-9-9h-4.7zM199.3 452h9.9c5 0 9-4 9-9s-4-9-9-9h-9.9c-5 0-9 4-9 9s4 9 9 9zM347.7 255.9h-5.2c-5 0-9 4-9 9s4 9 9 9h5.2c5 0 9-4 9-9s-4-9-9-9zM361.9 399.6c-5 0-9 4-9 9s4 9 9 9h6.5c5 0 9-4 9-9s-4-9-9-9h-6.5z" transform="translate(2 -3)"/>
</svg>
