<svg viewBox="0 0 512 512"
		 width="64"
		 height="64"
		 xmlns="http://www.w3.org/2000/svg">
  <path fill="#47568C" d="M498.7 498.7a44.7 44.7 0 01-63.6 0l-81.4-81.4 1.8-61.8 61.8-1.8 81.4 81.4a44.7 44.7 0 010 63.6z"/>
  <path fill="#2C3B73" d="M498.7 498.7a44.7 44.7 0 01-63.6 0l-81.4-81.4 1.8-61.8 143.2 143.2z"/>
  <path fill="#FDBF00" d="M417.3 353.7l-63.6 63.6-65.1-65.1a15 15 0 010-21l42.6-42.6a15 15 0 0121 0l65 65z"/>
  <path fill="#FF9100" d="M385.5 385.5l-31.8 31.8-65.1-65.1a15 15 0 010-21l21.3-21.3 75.6 75.6z"/>
  <path fill="#47568C" d="M332.7 57.3a194.2 194.2 0 00-275.4 0 194.2 194.2 0 000 275.4 194.2 194.2 0 00275.4 0 194.2 194.2 0 000-275.4z"/>
  <path fill="#2C3B73" d="M332.7 332.7a194.2 194.2 0 01-275.4 0 194.2 194.2 0 010-275.4l275.4 275.4z"/>
  <path fill="#EDF5FF" d="M311.7 311.7A165 165 0 1178.3 78.3a165 165 0 11233.4 233.4z"/>
  <path fill="#D7E9FF" d="M311.7 311.7A165 165 0 1178.3 78.3l233.4 233.4z"/>
  <path fill="#47568C" d="M165 120a45 45 0 01-45-45 15 15 0 1130 0 15 15 0 0015 15 15 15 0 110 30zM225 120a15 15 0 110-30 15 15 0 0015-15 15 15 0 1130 0 45 45 0 01-45 45z"/>
  <path fill="#2C3B73" d="M128.3 178.4L95 161.8A3.5 3.5 0 0090 165a15 15 0 11-30 0c0-25 26.3-41.2 48.5-30l33.2 16.5a15 15 0 11-13.4 26.9z"/>
  <path fill="#47568C" d="M241.5 171.7a15 15 0 016.8-20.2l33.1-16.5a33.5 33.5 0 0148.6 30 15 15 0 11-30 0c0-2.6-2.6-4.4-5.2-3.2l-33.1 16.6a15 15 0 01-20.2-6.7z"/>
  <path fill="#2C3B73" d="M135 330a15 15 0 01-15-15v-3.2a58.1 58.1 0 0132.2-52.3 15 15 0 0113.5 26.9 28.2 28.2 0 00-15.7 25.4v3.2a15 15 0 01-15 15zM75 270a15 15 0 01-15-15 45 45 0 0145-45h30a15 15 0 110 30h-30a15 15 0 00-15 15 15 15 0 01-15 15zM255 330a15 15 0 01-15-15v-3.2c0-10.8-6-20.6-15.7-25.4a15 15 0 1113.4-26.9c19.9 10 32.3 30 32.3 52.3v3.2a15 15 0 01-15 15z"/>
  <path fill="#47568C" d="M315 270a15 15 0 01-15-15 15 15 0 00-15-15h-30a15 15 0 110-30h30a45 45 0 0145 45 15 15 0 01-15 15zM270 150l-39.3 30h-71.4L120 150l11.4-18.6 20-33c2.8-5.1 7.9-8.4 13.6-8.4h60c5.7 0 10.8 3.3 13.5 8.4L270 150z"/>
  <path fill="#2C3B73" d="M180 180h-20.7L120 150l11.4-18.6z"/>
  <path fill="#FF641A" d="M270 150v75c0 13.2-3.3 25.5-9 36a75 75 0 01-141-36v-75h150z"/>
  <path fill="#F03800" d="M261 261a75 75 0 01-141-36v-75h30l111 111z"/>
</svg>
