<svg version="1.1"
		 xmlns="http://www.w3.org/2000/svg"
		 xmlns:xlink="http://www.w3.org/1999/xlink"
		 width="64"
		 height="64"
		 viewBox="0 0 179.5 179.5">
	<g transform="translate(71.8 71.8) scale(0.6)">
		<path fill="#324A5E" d="M42,173.3l-36-36L138.6,4.7c6.3-6.3,16.4-6.3,22.7,0L174.6,18c6.3,6.3,6.3,16.4,0,22.7L42,173.3z"/>
		<path fill="#FC6F58" d="M174.6,40.7c6.3-6.3,6.3-16.4,0-22.7L161.3,4.7c-6.3-6.3-16.4-6.3-22.7,0l-9.9,9.9l36,36L174.6,40.7z"/>
		<path fill="#F1543F" d="M174.6,18l-7.1-7.1l-21.3,21.3l18.5,18.5l9.9-9.9C180.9,34.4,180.9,24.2,174.6,18z"/>
		<rect fill="#2B3B4E" x="7.2" y="89.4" transform="matrix(0.7071 -0.7071 0.7071 0.7071 -45.0305 96.5264)" width="173.5" height="26.3"/>
		<polygon fill="#FFDC8D" points="42,173.3 0,179.3 6,137.3 "/>
		<polygon fill="#FFD15D" points="42,173.3 24,155.3 0,179.3 0,179.3 "/>
		<polygon fill="#324A5E" points="16.2,177 2.3,163.1 0,179.3 "/>
		<polygon fill="#2B3B4E" points="0,179.3 0,179.3 16.2,177 9.3,170 "/>
	</g>
</svg>
