<svg
	width="512pt"
	height="512pt"
	viewBox="0 0 512 512"
	xmlns="http://www.w3.org/2000/svg">
	<path
		d="m361.601562 0h-211.203124l-150.398438 150.398438v211.203124l150.398438 150.398438h211.203124l150.398438-150.398438v-211.203124zm0 0"
		fill="#ff6c6c"/>
	<path d="m512 150.398438v211.203124l-150.398438 150.398438h-105.601562v-512h105.601562zm0 0" fill="#ff4949"/>
	<g opacity="0.7" transform="translate(-51.2 -51.2) scale(1.2)">
		<path
			d="m336.699219 61h-161.398438l-114.300781 114.300781v161.398438l114.300781 114.300781h161.398438l114.300781-114.300781v-161.398438zm84.300781 263.402344-96.597656 96.597656h-136.804688l-96.597656-96.597656v-136.804688l96.597656-96.597656h136.804688l96.597656 96.597656zm0 0"
			fill="#deecf1"/>
		<path
			d="m451 175.300781v161.398438l-114.300781 114.300781h-80.699219v-30h68.402344l96.597656-96.597656v-136.804688l-96.597656-96.597656h-68.402344v-30h80.699219zm0 0"
			fill="#c6e2e7"/>
	</g>
	<g transform="translate(106 106) scale(0.75) rotate(45 201 201)">
		<path fill="#fff" d="M394,154.175c-5.331-5.33-11.806-7.994-19.417-7.994H255.811V27.406c0-7.611-2.666-14.084-7.994-19.414
			C242.488,2.666,236.02,0,228.398,0h-54.812c-7.612,0-14.084,2.663-19.414,7.993c-5.33,5.33-7.994,11.803-7.994,19.414v118.775
			H27.407c-7.611,0-14.084,2.664-19.414,7.994S0,165.973,0,173.589v54.819c0,7.618,2.662,14.086,7.992,19.411
			c5.33,5.332,11.803,7.994,19.414,7.994h118.771V374.59c0,7.611,2.664,14.089,7.994,19.417c5.33,5.325,11.802,7.987,19.414,7.987
			h54.816c7.617,0,14.086-2.662,19.417-7.987c5.332-5.331,7.994-11.806,7.994-19.417V255.813h118.77
			c7.618,0,14.089-2.662,19.417-7.994c5.329-5.325,7.994-11.793,7.994-19.411v-54.819C401.991,165.973,399.332,159.502,394,154.175z"
			/>
	</g>

</svg>