<svg xmlns="http://www.w3.org/2000/svg" width="64" height="64" viewBox="0 0 64 64"><path d="M31.744.08A31.92 31.92 0 0 0 .08 32 31.92 31.92 0 0 0 32 63.918 31.92 31.92 0 0 0 63.918 32 31.92 31.92 0 0 0 32 .08a31.92 31.92 0 0 0-.256 0zM21.246 14.395c.78 0 1.449.279 2.006.835l8.691 8.692 8.692-8.692a2.732 2.732 0 0 1 2.004-.835c.78 0 1.449.278 2.006.835l4.011 4.01c.558.558.836 1.226.836 2.006 0 .78-.279 1.449-.836 2.006l-8.691 8.691 8.691 8.69c.557.557.836 1.226.836 2.006 0 .78-.279 1.448-.836 2.006l-4.011 4.011a2.73 2.73 0 0 1-2.004.836c-.78 0-1.449-.278-2.006-.836l-8.692-8.691-8.691 8.691a2.736 2.736 0 0 1-2.006.836c-.78 0-1.446-.278-2.004-.836l-4.012-4.011a2.738 2.738 0 0 1-.835-2.006c0-.78.279-1.447.835-2.004l8.692-8.692-8.692-8.691a2.736 2.736 0 0 1-.835-2.006c0-.78.278-1.446.835-2.004l4.012-4.012a2.731 2.731 0 0 1 2.004-.835z" fill="#fff"/></svg>