<svg
	version="1.1"
	width="64"
	height="64"
	viewBox="0 0 512 512"
	xmlns="http://www.w3.org/2000/svg"
	xmlns:xlink="http://www.w3.org/1999/xlink"
>
	<g>
		<path fill="#FADC60"
					d="M458.371,63.973H53.628c-12.441,0-22.526,10.085-22.526,22.526v336.634h449.796V86.499    C480.898,74.059,470.812,63.973,458.371,63.973z"/>
		<rect x="71.89" y="97.948" fill="#000" width="368.22" height="265.002"/>
		<rect x="71.89" y="97.948" fill="#333" width="40" height="265.002"/>
		<path fill="#ccc"
					d="M168.33,326.71H71.417c-10.58,0-19.156,8.577-19.156,19.156v70.472h135.226v-70.472    C187.487,335.287,178.91,326.71,168.33,326.71z"/>
		<path fill="#eee"
					d="M101.417,326.711h-30c-10.58,0-19.156,8.576-19.156,19.156v70.472h30v-70.472    C82.261,335.287,90.837,326.711,101.417,326.711z"/>
		<ellipse fill="#EFEDEE" cx="119.874" cy="361.817" rx="28.378" ry="15.369"/>
		<path fill="#E6CB59"
					d="M480.898,396.924H31.102c-13.035,0-23.602,10.567-23.602,23.602v27.5h497v-27.5    C504.5,407.491,493.933,396.924,480.898,396.924z"/>
	</g>
	<g>
		<path fill="#fff" stroke-width="20px" stroke="#fff"
			d="M148.625,223.867v18.076c0,4.142,3.358,7.5,7.5,7.5s7.5-3.358,7.5-7.5v-18.076c0-4.142-3.358-7.5-7.5-7.5    S148.625,219.725,148.625,223.867z"/>
		<path fill="#fff" stroke-width="20px" stroke="#fff"
			d="M348.375,223.867v18.076c0,4.142,3.358,7.5,7.5,7.5s7.5-3.358,7.5-7.5v-18.076c0-4.142-3.358-7.5-7.5-7.5    S348.375,219.725,348.375,223.867z"/>
		<path fill="#fff" stroke-width="20px" stroke="#fff"
			d="M275.003,235.749c-4.634,5.302-11.561,8.342-19.003,8.342s-14.37-3.041-19.003-8.342    c-2.726-3.119-7.464-3.437-10.583-0.711s-3.437,7.464-0.711,10.583c7.483,8.561,18.526,13.471,30.297,13.471    s22.814-4.91,30.297-13.47c2.726-3.119,2.408-7.857-0.711-10.583C282.468,232.313,277.73,232.63,275.003,235.749z"/>
		<path
			d="M119.874,338.948c-20.454,0-35.878,9.832-35.878,22.87c0,13.038,15.424,22.869,35.878,22.869s35.878-9.832,35.878-22.869    C155.752,348.78,140.328,338.948,119.874,338.948z M119.874,369.687c-13.562,0-20.878-5.585-20.878-7.869    c0-2.284,7.316-7.87,20.878-7.87s20.878,5.585,20.878,7.87C140.752,364.101,133.436,369.687,119.874,369.687z"/>
		<path
			d="M488.398,390.344V86.5c0-16.557-13.47-30.026-30.026-30.026H150.809c-4.142,0-7.5,3.358-7.5,7.5s3.358,7.5,7.5,7.5    h307.563c8.285,0,15.026,6.741,15.026,15.026v302.925H194.987V370.45h165.822c4.142,0,7.5-3.358,7.5-7.5s-3.358-7.5-7.5-7.5    H194.987c0,0,0-9.577,0-9.583c0-14.443-12.235-26.656-26.656-26.656H79.39V105.448h353.22V355.45h-41.801    c-4.142,0-7.5,3.358-7.5,7.5s3.358,7.5,7.5,7.5h49.301c4.142,0,7.5-3.358,7.5-7.5V97.948c0-4.142-3.358-7.5-7.5-7.5H71.89    c-4.142,0-7.5,3.358-7.5,7.5v222.209c-11.298,3.092-19.629,13.443-19.629,25.709v43.558h-6.159V86.5    c0-8.286,6.741-15.026,15.026-15.026h67.181c4.142,0,7.5-3.358,7.5-7.5s-3.358-7.5-7.5-7.5H53.628    c-16.557,0-30.026,13.47-30.026,30.026v303.845C10.064,393.71,0,405.963,0,420.527v27.5c0,4.143,3.358,7.5,7.5,7.5h497    c4.142,0,7.5-3.357,7.5-7.5v-27.5C512,405.963,501.936,393.71,488.398,390.344z M59.761,345.866    c0-6.427,5.229-11.656,11.656-11.656h0.473h96.441c6.427,0,11.656,5.229,11.656,11.656v43.558H59.761V345.866z M497,440.527H15    v-20c0-8.879,7.223-16.102,16.102-16.102h449.796c8.879,0,16.102,7.223,16.102,16.102V440.527z"/>
	</g>
</svg>