<svg width="64"	height="64"	viewBox="0 -86 512 512" xmlns="http://www.w3.org/2000/svg">
  <path fill="#FFFFFF" d="M502 10v320H10V10h86a40 40 0 0080 0h160a40 40 0 0080 0zm0 0"/>
  <path fill="#888888" d="M216 260v10H76v-10a70 70 0 11140 0zm0 0"/>
  <path fill="#888888" d="M186 150a40 40 0 11-80 0 40 40 0 0180 0zm0 0"/>
  <path fill="#888888" d="M179.32 187.24A49.89 49.89 0 00196 150c0-27.57-22.43-50-50-50s-50 22.43-50 50c0 14.8 6.47 28.11 16.72 37.28C85.18 199.93 66 227.76 66 260v10a10 10 0 0010 10h140a10 10 0 0010-10v-10a79.95 79.95 0 00-46.68-72.76zM116 150c0-16.54 13.46-30 30-30s30 13.46 30 30-13.46 30-30 30-30-13.46-30-30zM86 260c0-33.09 26.91-60 60-60 33.1 0 60 26.78 60 60zm0 0"/>
  <path d="M296 140a10 10 0 100-20 10 10 0 000 20zm0 0M296 200a10 10 0 100-20 10 10 0 000 20zm0 0"/>
  <path d="M502 0h-86a10 10 0 00-10 10c0 16.54-13.46 30-30 30s-30-13.46-30-30a10 10 0 00-10-10H176a10 10 0 00-10 10c0 16.54-13.46 30-30 30s-30-13.46-30-30A10 10 0 0096 0H10A10 10 0 000 10v320a10 10 0 0010 10h492a10 10 0 0010-10V10a10 10 0 00-10-10zm-10 320H20V20h67c4.65 22.8 24.86 40 49 40s44.35-17.2 49-40h142c4.65 22.8 24.86 40 49 40s44.35-17.2 49-40h67zm0 0"/>
  <path fill="#888888" d="M442 180H336a10 10 0 100 20h106a10 10 0 100-20zm0 0M326 130a10 10 0 0010 10h106a10 10 0 100-20H336a10 10 0 00-10 10zm0 0M442 240H296a10 10 0 100 20h146a10 10 0 100-20zm0 0"/>
</svg>
