
<svg xmlns="http://www.w3.org/2000/svg" viewBox="0 0 64 64" width="64" height="64">
  <path class="trait" fill="#666" d="M46 23.2h.3c.4 0 .7.1 1.2.3.1 0 .3.1.4.1h.1c.1.1.3.1.4.3.4.3.7.5 1.1 1.1.1.3.3.4.4.7 4.9 10.5 9 21.3 13.8 31.8.3.7.4 1.5.3 2.3-.1 1.6-1.2 3.1-2.8 3.6-.4.1-.8.3-1.3.3s-1.1 0-1.6-.1-1.1-.4-1.5-.7c-.5-.4-1.1-1.1-1.3-1.6-1.1-2.2-2-4.2-3-6.6H39.1c-.8 2.2-1.8 4.2-2.8 6.3-.3.7-.7 1.3-1.5 1.8-.4.3-.7.4-1.2.5-1.5.4-3.2.1-4.3-.8-.4-.3-.7-.7-1.1-1.3-.3-.4-.4-1.1-.4-1.5-.1-.7 0-1.3.3-2.2 4.2-10.8 9-21.3 13.8-32 .1-.3.3-.5.4-.7.3-.4.5-.7 1.1-1.1.1-.1.3-.1.4-.3 0 0 .1 0 .1-.1.1 0 .3-.1.3-.1.3-.1.7-.3 1.2-.3.3.3.5.3.6.3zm.1 16.2c-.8 2.2-1.8 4.2-2.8 6.5h5.3c-.7-2.2-1.4-4.5-2.5-6.5zM11.7 6.6c.3-1.9.6-3.5 1-4.5C13.1.6 14 0 15.3 0c.6 0 1.2.1 1.6.3 1 .4 1.5 1.1 1.5 2.1 0 .2 0 .6-.1 1-.1.5-.3 1.4-.5 2.6 2.4-.3 4.6-.9 6.8-1.4.3-.2.8-.2 1.1-.2 1.2 0 2.1.6 2.4 1.8.1.3.2.8.2 1.1 0 1.3-.8 2.2-2.4 2.6-2.1.5-5.1 1.1-9.1 1.6-.2 1.3-.3 3-.5 4.9 1.9-.5 4-.9 6.2-1.1.1-.2.1-.4.2-.6.2-.8.4-1.2.6-1.5.4-.4 1-.6 1.7-.6 2.1 0 3.1.9 3.1 2.5 0 .2 0 .5-.1.9 2.5.6 4.5 1.6 6 3 2.6 2.2 3.9 5 3.9 8.4 0 5.1-2.4 9-7.2 11.4-1.4.8-3 1.3-4.6 1.7-.8.2-1.3.3-1.7.3-1.4 0-2.1-.8-2.1-2.2 0-.9.6-1.6 1.8-2.1 2.7-1 4.5-2.2 5.7-3.5 1.3-1.5 2.1-3.6 2.1-5.9 0-3.7-1.8-6-5.4-7.2-2.7 5.7-5.8 9.9-9.5 12.8v.2c.2 1 .4 1.6.5 1.9.2.5.2 1.1.2 1.6 0 1.2-.5 2.1-1.6 2.5-.5.2-1 .3-1.4.3-1.2 0-1.9-.6-2.4-1.8-.1-.5-.2-.9-.3-1-2.6 1.5-4.8 2.3-6.4 2.3s-2.8-.7-3.8-2.1C1 35.4.6 33.8.6 31.7c0-5 3.3-9.4 10-13.2.1-1.6.2-3.9.4-6.6-2.4.1-4 .2-4.9.2s-1.4-.1-1.8-.4c-.6-.5-1-1.2-1-2.1 0-1.1.4-1.9 1.4-2.4.4-.2.9-.3 1.4-.3h.4c1.3-.1 3.1-.1 5.2-.3zm-1.2 17.6c-3 2.4-4.5 4.6-4.5 6.9 0 1.3.3 2.1 1.1 2.1.9 0 2.2-.6 4-1.8-.5-2.6-.6-5-.6-7.2zm10.3-4.4c-1.5.2-3.1.6-4.8 1.3v1.6c0 1.2 0 2.6.1 4.2 1.9-2.2 3.4-4.6 4.7-7.1z"/>
</svg>
