<svg xmlns="http://www.w3.org/2000/svg" viewBox="0 0 64 64" width="64" height="64">
	<path fill="#666" d="M48.5 30.7h.2c.3 0 .5.1.9.2.1 0 .2.1.3.1h.1c.1.1.2.1.3.2.3.2.5.4.8.8.1.2.2.3.3.5 3.6 7.8 6.7 15.8 10.2 23.6.2.5.3 1.1.2 1.7-.1 1.2-.9 2.3-2.1 2.7-.3.1-.6.2-1 .2s-.8 0-1.2-.1c-.4-.1-.8-.3-1.1-.5-.4-.3-.8-.8-1-1.2-.8-1.6-1.5-3.1-2.2-4.9h-9.8c-.6 1.6-1.3 3.1-2.1 4.7-.2.5-.5 1-1.1 1.3-.3.2-.5.3-.9.4-1.1.3-2.4.1-3.2-.6-.3-.2-.5-.5-.8-1-.2-.3-.3-.8-.3-1.1-.1-.5 0-1 .2-1.6 3.1-8 6.7-15.8 10.2-23.7.1-.2.2-.4.3-.5.2-.3.4-.5.8-.8.1-.1.2-.1.3-.2 0 0 .1 0 .1-.1.1 0 .2-.1.2-.1.2-.1.5-.2.9-.2.3.2.4.2.5.2zm.1 12c-.6 1.6-1.3 3.1-2.1 4.8h3.9c-.5-1.6-1-3.3-1.8-4.8zM22.8 34l-3.4-5.4c1.5-.2 2.5-.4 3.6-.7 4.7-1.2 7.9-4.5 7.9-9.5 0-4.8-2.3-8.3-6.6-9.2-.4 3.1-1.2 6.3-2.2 9.8-2.2 7.5-5.6 12.4-10 12.4-4.6.1-8.1-5-8.1-11.4 0-8.9 7.7-16.5 17.6-16.5 9.6 0 15.5 6.6 15.5 15.1.1 8-4.5 13.9-14.3 15.4zm-10.4-9.6c1.5 0 2.6-2.3 4-6.6.8-2.5 1.4-5.5 1.9-8.4C12.7 11 9.9 16 9.9 19.6c-.1 3.2 1.1 4.8 2.5 4.8z"/>
</svg>