<svg
	version="1.1"
	xmlns="http://www.w3.org/2000/svg"
	xmlns:xlink="http://www.w3.org/1999/xlink"
	viewBox="0 0 64 64"
	width="64px"
	height="64px"
	xml:space="preserve"
><path d="M2.66,61.33 l0,-48 l10.666,0 l16,-10.666 l0,10.666 l32,0 l0,48Z" fill="#fff" stroke="#000" stroke-width="5.333px" stroke-linejoin="round" />
<g transform="matrix(1,0,0,1,-96,-192)">
	<g transform="matrix(1,0,0,1,96,192)">
		<g transform="matrix(1,0,0,1,-96,-192)">
			<path d="M112.4,219.6c0-1,0-2,0-3c0-0.3,0.1-0.6,0.2-0.8c0.3-0.8,0.8-1.4,1.6-1.7c0.3-0.1,0.6-0.2,1-0.3c0.1,0,0.3,0,0.4,0
				c0.3,0,0.7,0.1,1,0.2c0.8,0.3,1.5,1,1.8,1.8c0.1,0.3,0.2,0.6,0.2,0.9c0,1,0,2,0,3c2,0,4.1,0.1,6.1,0.1c0.4,0,0.9,0.1,1.2,0.3
				c0.3,0.2,0.6,0.4,0.9,0.7c0.2,0.3,0.4,0.6,0.5,0.9c0.1,0.3,0.2,0.6,0.2,0.8c0.1,1.1-0.5,2.2-1.5,2.8c-0.4,0.2-0.9,0.4-1.4,0.4
				l-0.3,0c0,0.4-0.1,0.9-0.1,1.3c-0.1,0.5-0.1,1-0.2,1.6c-0.6,3.4-1.7,6.8-3.3,9.9c0.9,0.5,1.8,1,2.7,1.4c0.5,0.2,0.9,0.4,1.4,0.6
				c0.3,0.1,0.5,0.2,0.8,0.3c0.1,0.1,0.1,0.1,0.2,0.1c0.5,0.3,0.9,0.6,1.2,1c0.2,0.3,0.3,0.5,0.4,0.8c0.3,0.9,0,2-0.6,2.7
				c-0.2,0.2-0.4,0.4-0.7,0.6c-0.6,0.4-1.3,0.5-2,0.4c-0.4-0.1-0.7-0.2-1.1-0.3c-1.4-0.5-2.8-1.2-4.2-2c-0.5-0.3-0.9-0.5-1.4-0.8
				c-0.9,1.2-2,2.3-3.1,3.3c-1,0.9-2,1.6-3,2.3c-0.1,0.1-0.1,0.1-0.3,0.2c-0.4,0.2-0.8,0.3-1.3,0.3c-0.4,0-0.8-0.1-1.1-0.2
				c-0.3-0.1-0.6-0.3-0.9-0.5c-1-0.8-1.3-2.2-0.9-3.4c0.2-0.5,0.6-1,1-1.3c0.3-0.2,0.6-0.4,1-0.7c0.7-0.5,1.4-1.1,2.1-1.7
				c0.6-0.6,1.2-1.2,1.8-1.9c-1.5-1.3-2.9-2.8-4.1-4.4c-0.5-0.6-0.9-1.3-1.3-2c-0.2-0.4-0.5-0.8-0.6-1.3c-0.2-1,0.1-2,0.7-2.7
				c0.2-0.2,0.5-0.4,0.7-0.6c0.4-0.2,0.8-0.3,1.3-0.4c0.1,0,0.1,0,0.3,0c0.2,0,0.4,0,0.7,0.1c0.7,0.2,1.4,0.7,1.8,1.3
				c0.2,0.3,0.3,0.5,0.5,0.8c0.9,1.5,2,2.8,3.3,4c0.9-1.9,1.6-3.9,2.1-6c0.2-1,0.4-2,0.5-3.1c-4,0-8,0-11.9-0.1
				c-0.5,0-0.9-0.2-1.4-0.4c-1-0.6-1.5-1.7-1.5-2.8c0-0.3,0.1-0.6,0.2-0.8c0.1-0.3,0.3-0.6,0.5-0.9c0.2-0.3,0.6-0.5,0.9-0.7
				c0.4-0.2,0.8-0.3,1.2-0.3C108.4,219.7,110.4,219.6,112.4,219.6z M141.5,219.7c0.1,0,0.1,0,0.2,0c0,0,0,0,0,0c0,0,0,0,0,0
				c0.3,0,0.5,0.1,0.8,0.2c0.1,0,0.2,0.1,0.3,0.1c0,0,0.1,0,0.1,0c0.1,0.1,0.2,0.1,0.3,0.2c0.3,0.2,0.5,0.4,0.7,0.7
				c0.1,0.2,0.2,0.3,0.3,0.5c3.2,6.9,6,14,9,21c0.2,0.5,0.3,1,0.2,1.5c-0.1,1.1-0.8,2-1.8,2.4c-0.3,0.1-0.6,0.2-0.9,0.2
				c-0.4,0-0.7,0-1.1-0.1c-0.4-0.1-0.7-0.3-1-0.5c-0.4-0.3-0.7-0.7-0.9-1.1c-0.7-1.4-1.3-2.8-1.9-4.3c-2.9,0-5.9,0-8.8,0
				c-0.6,1.4-1.2,2.8-1.8,4.1c-0.2,0.5-0.5,0.9-1,1.2c-0.3,0.2-0.5,0.3-0.8,0.4c-1,0.3-2.1,0.1-2.9-0.6c-0.3-0.2-0.5-0.5-0.7-0.9
				c-0.2-0.3-0.3-0.7-0.3-1c-0.1-0.5,0-0.9,0.2-1.4c2.8-7.1,6-14,9-21.1c0.1-0.2,0.2-0.4,0.3-0.5c0.2-0.3,0.4-0.5,0.7-0.7
				c0.1-0.1,0.2-0.1,0.3-0.2c0,0,0.1,0,0.1-0.1c0.1,0,0.2-0.1,0.2-0.1c0.2-0.1,0.5-0.2,0.8-0.2c0,0,0,0,0,0c0,0,0,0,0,0
				C141.3,219.7,141.4,219.7,141.5,219.7z M141.6,230.4c-0.6,1.4-1.2,2.8-1.8,4.2c1.2,0,2.4,0,3.5,0
				C142.7,233.2,142.2,231.8,141.6,230.4z"/>
		</g>
	</g>
</g>
</svg>
