<svg xmlns="http://www.w3.org/2000/svg" width="40" height="40" viewBox="0 0 10.583333 10.583334"><path d="M2.123 1.336c-.485-.017-.858.462-.793.926.003 2.094-.005 4.187.004 6.28.032.466.504.771.945.71 2.088-.002 4.176.006 6.263-.003.465-.032.771-.503.71-.945V6.422c-.122-.094-.278.062-.176.18.14.3.268.671.034.964-.205.222-.472.429-.779.477-.36.057-.631-.207-.843-.458-.134-.08-.25.077-.232.22-.02.427-.386.817-.83.788-.424.063-.895-.198-.96-.645-.05-.112.01-.323-.124-.362-.149-.093-.215.123-.319.197-.277.339-.805.333-1.121.057a.809.809 0 0 1-.343-1.09c.037-.123.171-.261.019-.356-.286.06-.617.184-.894-.002-.287-.16-.395-.495-.48-.791-.076-.385.192-.717.51-.894.227-.091.049-.23-.12-.245-.436-.095-.701-.578-.572-1 .017-.407.322-.805.752-.817.129-.019.294.017.401-.034-.22-.257-.466-.568-.354-.931.056-.218.323-.41-.034-.344h-.664z" class="background" fill="#e6e6e6"/><path d="M6.35 8.07c.111 0 .14-.002.14-.002a.253.253 0 0 0 .22-.197l.091-.503a.31.31 0 0 1 .215-.227l.426-.13a.3.3 0 0 1 .302.07l.344.371a.239.239 0 0 0 .287.04l.24-.16a.252.252 0 0 0 .079-.284l-.198-.478a.319.319 0 0 1 .057-.31l.259-.319a.295.295 0 0 1 .29-.105l.488.124a.238.238 0 0 0 .262-.122l.119-.283a.255.255 0 0 0-.089-.283l-.428-.298a.321.321 0 0 1-.12-.292s.045-.263.045-.497V4.17c-.001-.015.078-.055.176-.087l.477-.16a.238.238 0 0 0 .153-.245l-.055-.326a.256.256 0 0 0-.228-.19l-.522-.019a.325.325 0 0 1-.26-.179l-.13-.262a.296.296 0 0 1 .024-.308L9.331 2a.24.24 0 0 0-.002-.29l-.236-.262A.253.253 0 0 0 8.8 1.41l-.449.267a.318.318 0 0 1-.314-.01l-.208-.13a.306.306 0 0 1-.144-.276L7.74.752a.245.245 0 0 0-.157-.246l-.351-.1a.248.248 0 0 0-.265.125l-.232.463a.3.3 0 0 1-.27.154l-.113-.001-.114.001a.302.302 0 0 1-.27-.154L5.734.531A.25.25 0 0 0 5.47.406l-.35.1a.245.245 0 0 0-.158.246l.055.509a.306.306 0 0 1-.144.277l-.208.128a.318.318 0 0 1-.314.011L3.9 1.41a.252.252 0 0 0-.292.037l-.237.262a.241.241 0 0 0-.001.29l.317.396c.065.08.076.22.024.309l-.129.261a.326.326 0 0 1-.262.18l-.522.018a.255.255 0 0 0-.227.19l-.056.326a.239.239 0 0 0 .154.245l.477.16c.097.032.177.072.176.087v.014c0 .234.046.497.046.497a.321.321 0 0 1-.122.292l-.428.298a.256.256 0 0 0-.088.283l.12.283c.049.095.156.146.26.123l.488-.125c.1-.026.23.022.29.105l.26.318c.07.076.096.216.056.31l-.197.478a.253.253 0 0 0 .08.285l.238.16c.094.053.211.037.287-.04l.345-.37a.3.3 0 0 1 .301-.071l.426.13a.31.31 0 0 1 .215.227l.091.503a.253.253 0 0 0 .22.197s.03.002.14.002zm0-3.333a.549.549 0 0 1-.106-.01l-.01-.003a.55.55 0 0 1-.189-.08h-.001a.551.551 0 0 1-.082-.068l-.002-.002a.552.552 0 0 1-.066-.08l-.002-.003a.553.553 0 0 1-.051-.515l.004-.01v-.003a.553.553 0 0 1 .292-.288h.001a.55.55 0 0 1 .1-.031h.003a.549.549 0 0 1 .22 0h.002a.55.55 0 0 1 .099.03l.005.003a.55.55 0 0 1 .172.116l.002.002a.552.552 0 0 1 .065.08l.002.002c.019.029.035.06.049.092v.002l.001.001a.554.554 0 0 1 .032.321v.005a.553.553 0 0 1-.032.1v.003a.553.553 0 0 1-.05.09l-.003.005a.552.552 0 0 1-.063.076l-.006.006a.551.551 0 0 1-.172.115v.001h-.002a.55.55 0 0 1-.097.03l-.008.002a.55.55 0 0 1-.107.011z" class="foreground" fill="#666"/></svg>