<svg xmlns="http://www.w3.org/2000/svg" width="40" height="40" viewBox="0 0 10.583333 10.583334"><path d="M2.11 1.323a.786.786 0 0 0-.787.787v6.363c0 .436.351.787.787.787h6.363a.786.786 0 0 0 .787-.787V4.728L6.902 7.086a.53.53 0 0 1-.002.002 1.06 1.06 0 0 1-.492.277.53.53 0 0 1-.041.008c-.602.1-2.062.295-2.062.295a.53.53 0 0 1-.596-.594s.195-1.46.295-2.064a.53.53 0 0 1 .01-.045c.047-.185.144-.353.279-.488l3.152-3.154zm6.736.097L5.043 5.222c-.06.374-.121.83-.185 1.297.467-.064.926-.125 1.3-.185L9.26 3.23V2.11c0-.3-.168-.557-.414-.69z" class="background" fill="#e6e6e6"/><path d="M9.317.95a.53.53 0 0 0-.75 0l-3.9 3.9a.53.53 0 0 0-.14.245c-.096.577-.294 2.049-.294 2.049s1.471-.199 2.048-.293a.53.53 0 0 0 .247-.139l3.9-3.9a.53.53 0 0 0 0-.752z" class="foreground" fill="#666"/></svg>