<svg enable-background="new" height="103" width="200" xmlns="http://www.w3.org/2000/svg"><path d="m-1.319-4.4375v107.34375h208.96875v-107.34375zm83.751433 19.4375h36.294617v16.898613l.76644 1.517262v2.162095l-.76647 1.306081v12.390949h-36.294617v-12.280122l-1.899326-1.286174-.02804-2.341261 1.927367-.959858z" fill="#fff"/><g transform="matrix(.3899961 0 0 .3899961 -266.59652924584 8.14888960024)"><g fill="#fff" opacity=".2"><path d="m963.099 57.537h13.9v-17.537c0-5-5.001-10-10-10h-9.176z" opacity=".3"/><path d="m926.93 57.537c.825 0 1.62.088 2.375.264.613.073 1.202.206 1.764.395l5.001-28.196h-25.248c-5.5 0-10 4.5-10 10v17.537z" opacity=".3"/><path d="m954.243 78.025c-2.215 0-4.164-.617-5.697-1.726l-4.843 27.31c-.084.483-.204.944-.343 1.391h23.639c5.5 0 10-4.5 10-10v-16.975z" opacity=".3"/><path d="m923.539 103.056c-.07-.256-.131-.515-.183-.779l-4.683-24.251h-17.852v16.974c0 5.5 4.5 10 10 10h13.158c-.211-.616-.364-1.264-.44-1.944z" opacity=".3"/></g><path d="m950.791 68.071c.105.534.278.971.507 1.329.218 1.55 1.2 2.326 2.945 2.326h32.836c1.924 0 2.921-1.014 2.921-3.041v-1.808c0-2.028-.997-3.042-2.921-3.042h-29.187l-7.111-37.115c-.326-1.657-1.196-2.485-2.61-2.485-.282 0-.586.033-.911.099l-1.746.354c-1.35.274-2.129.934-2.361 1.964-.102.266-.189.552-.247.882l-9.408 53.04-2.716-14.07c-.322-1.638-1.186-2.453-2.57-2.471-.368-.131-.794-.196-1.281-.196h-33.937c-1.996 0-2.993 1.014-2.993 3.042v1.808c0 2.027.997 3.041 2.993 3.041h30.88l5.668 29.355c.058.295.142.555.236.795-.026 1.496.805 2.422 2.51 2.728l1.754.315c.296.053.575.08.834.08 1.46 0 2.338-.839 2.623-2.474l9.562-53.919z" opacity=".5"/><g fill="#fff"><path d="m987.079 71.727h-32.836c-1.745 0-2.728-.776-2.945-2.326-.229-.358-.401-.795-.507-1.329l-3.73-19.464-9.562 53.919c-.285 1.634-1.163 2.474-2.623 2.474-.259 0-.538-.027-.834-.08l-1.754-.315c-1.705-.306-2.536-1.232-2.51-2.728-.095-.24-.179-.5-.236-.795l-5.668-29.355h-30.88c-1.996 0-2.993-1.014-2.993-3.041v41.313h100v-41.314c-.001 2.027-.998 3.041-2.922 3.041zm-76.257 33.273c-5.5 0-10-4.5-10-10v-16.975h17.852l4.683 24.251c.052.264.112.523.183.779.076.681.229 1.329.441 1.944h-13.159zm66.177-10c0 5.5-4.5 10-10 10h-23.639c.14-.446.259-.907.343-1.391l4.843-27.31c1.533 1.108 3.482 1.726 5.697 1.726h22.756z"/><path d="m890 10v56.877c0-2.028.997-3.042 2.993-3.042h33.937c.487 0 .913.065 1.281.196 1.385.019 2.248.833 2.57 2.471l2.716 14.07 9.408-53.04c.058-.33.146-.616.247-.882.232-1.03 1.012-1.69 2.361-1.964l1.746-.354c.325-.066.629-.099.911-.099 1.415 0 2.285.828 2.61 2.485l7.111 37.115h29.187c1.924 0 2.921 1.014 2.921 3.042v-56.875zm41.069 48.195c-.562-.188-1.151-.321-1.764-.395-.755-.175-1.55-.264-2.375-.264h-26.107v-17.536c0-5.5 4.5-10 10-10h25.248zm45.93-.658h-13.9l-5.276-27.537h9.176c4.999 0 10 5 10 10z"/></g></g></svg>