<svg xmlns="http://www.w3.org/2000/svg" width="40" height="40" viewBox="0 0 10.583333 10.583334"><path d="M2.117 1.323a.792.792 0 0 0-.794.794v2.115h1.859c.432 0 .825.267.984.668l.135.334.582-3.911zm4.977 0l1.162 2.91H9.26V2.116a.792.792 0 0 0-.793-.794zM6.422 5.35l-.583 3.91h2.628c.44 0 .793-.354.793-.793V6.349H7.541a1.061 1.061 0 0 1-.984-.664zm-5.1 1v2.117c0 .44.355.793.795.793h1.512L2.465 6.35z" class="background" fill="#e6e6e6"/><path d="M5.91.795a.53.53 0 0 0-.481.45l-.894 6.001-.862-2.15a.53.53 0 0 0-.492-.334H.529a.53.53 0 0 0-.53.529.53.53 0 0 0 .53.53h2.295l1.455 3.636a.53.53 0 0 0 1.013-.12l.895-6.005.863 2.156a.53.53 0 0 0 .49.332h2.514a.53.53 0 0 0 .53-.529.53.53 0 0 0-.53-.53H7.9L6.445 1.128A.53.53 0 0 0 5.91.795z" class="foreground" fill="#666"/></svg>