<svg enable-background="new" height="103" width="200" xmlns="http://www.w3.org/2000/svg"><path d="m-2.819-4.4375v107.34375h208.96875v-107.34375h-208.96875zm83.75 17.875h37v36.125h-37z" fill="#fff"/><g transform="matrix(.39000002 0 0 .39000002 60.826685 16.031128)"><path d="m119.15839 9.91736h-56.375996c-4.036 0-7.338 3.303-7.338 7.338v27.955c0 4.035 3.303 7.338 7.338 7.338h6.872l9.474 9.474 9.473-9.474h30.556996c4.036 0 7.338-3.303 7.338-7.338v-27.954c.001-4.035-3.302-7.339-7.338-7.339z" opacity=".5"/><g fill="#fff"><path d="m622.662 52.895h-4.978v11.609c0 7.703-6.267 13.97-13.97 13.97h-27.809l-7.531 7.531-4.691 4.689-4.688-4.689-.048-.047v2.23c0 4.036 3.303 7.338 7.338 7.338h30.557l9.474 9.474 9.474-9.474h6.872c4.036 0 7.338-3.302 7.338-7.338v-27.955c0-4.036-3.303-7.338-7.338-7.338z" opacity=".2" transform="translate(-484.55561 -19.29264)"/><path d="m50.444394-9.29264v100h99.999996v-100zm12.338 61.842c-4.036 0-7.338-3.303-7.338-7.338v-27.955c0-4.035 3.303-7.338 7.338-7.338h56.375996c4.036 0 7.338 3.303 7.338 7.338v27.955c0 4.035-3.303 7.338-7.338 7.338h-30.556996l-9.473 9.474-9.474-9.474zm82.661996 16.346c0 4.036-3.303 7.338-7.338 7.338h-6.872l-9.474 9.474-9.474-9.474h-30.556996c-4.036 0-7.338-3.302-7.338-7.338v-2.23l.048.047 4.688 4.689 4.691-4.689 7.531-7.531h27.808996c7.703 0 13.97-6.267 13.97-13.97v-11.609h4.978c4.036 0 7.338 3.303 7.338 7.339z"/></g></g></svg>