<svg xmlns="http://www.w3.org/2000/svg" width="40" height="40" viewBox="0 0 10.583333 10.583334"><path d="M5.292 2.91l-3.97 2.646v2.91c0 .44.355.794.795.794h1.588V7.408c0-.577.48-1.059 1.056-1.059h1.06c.576 0 1.058.482 1.058 1.06V9.26h1.588c.44 0 .793-.354.793-.793v-2.91zm-.53 4.498V8.73H5.82V7.408z" class="background" fill="#e6e6e6"/><path d="M5.292 1.323l-3.97 2.646v1.058l3.97-2.646L9.26 5.027V3.97zm-.53 5.556a.528.528 0 0 0-.529.53V9.26H6.35V7.408a.528.528 0 0 0-.53-.529z" class="foreground" fill="#666"/></svg>