<svg enable-background="new" height="103" width="200" xmlns="http://www.w3.org/2000/svg"><path d="m-5.919-4.4375v107.34375h208.96875v-107.34375zm91.551184 17.399186h35.919536v36.313314h-35.919536z" fill="#fff"/><g transform="matrix(.39 0 0 .39 -330.8499996 7.51900037)"><g><path d="m1138.13 78.801c.979-.035 1.953-.844 2.163-1.801l.536-3.097c.124-.971-.535-2.018-1.463-2.326l-4.54-1.514c-.928-.31-1.684-.681-1.678-.824 0 0 0 0 0-.132 0-2.226-.433-4.719-.433-4.719-.168-.964.352-2.21 1.156-2.768l4.071-2.83c.804-.558 1.182-1.766.84-2.682l-1.134-2.68c-.421-.884-1.541-1.408-2.489-1.167l-4.639 1.183c-.948.242-2.191-.211-2.763-1.006l-2.471-3.015c-.67-.714-.909-2.039-.535-2.942l1.876-4.535c.375-.904.035-2.117-.754-2.696l-2.273-1.518c-.834-.509-2.063-.341-2.731.375l-3.279 3.522c-.668.715-1.96 1.015-2.872.665l-4.049-1.227c-.953-.223-1.874-1.193-2.048-2.156l-.863-4.768c-.174-.963-1.114-1.805-2.091-1.871 0 0-.288-.02-1.337-.02s-1.336.02-1.336.02c-.977.066-1.916.908-2.092 1.871l-.861 4.768c-.174.963-1.097 1.933-2.048 2.156l-4.049 1.227c-.912.351-2.207.051-2.873-.665l-3.28-3.522c-.667-.716-1.896-.884-2.731-.375l-2.273 1.518c-.788.579-1.128 1.792-.753 2.695l1.877 4.536c.374.903.134 2.228-.535 2.942l-2.472 3.015c-.571.795-1.813 1.248-2.762 1.006l-4.641-1.183c-.946-.241-2.067.283-2.49 1.167l-1.134 2.681c-.342.916.036 2.123.84 2.681l4.073 2.83c.804.558 1.324 1.804 1.157 2.768 0 0-.436 2.494-.436 4.719v.132c.01.143-.747.514-1.675.824l-4.54 1.514c-.929.309-1.587 1.355-1.463 2.326l.534 3.097c.212.956 1.186 1.766 2.164 1.801l4.965.179c.977.036 2.095.798 2.485 1.695l1.234 2.482c.486.848.382 2.167-.231 2.929l-3.022 3.752c-.612.762-.604 2.003.02 2.756l2.251 2.479c.691.693 1.945.851 2.787.352l4.267-2.53c.842-.499 2.19-.452 2.994.105l1.979 1.217c.858.472 1.473 1.654 1.369 2.626l-.518 4.824c-.104.974.568 2.025 1.497 2.338l3.34.943c.952.223 2.09-.312 2.527-1.186l2.2-4.39c.438-.875 1.594-1.531 2.57-1.458 0 0 .12.01 1.083.01.965 0 1.083-.01 1.083-.01.976-.073 2.135.583 2.572 1.458l2.197 4.39c.439.874 1.578 1.408 2.53 1.186l3.339-.943c.928-.312 1.602-1.364 1.498-2.338l-.521-4.824c-.104-.973.514-2.155 1.37-2.626l1.98-1.218c.806-.556 2.152-.603 2.994-.104l4.268 2.53c.84.5 2.094.341 2.786-.353l2.253-2.479c.623-.753.631-1.994.017-2.756l-3.021-3.752c-.615-.762-.719-2.081-.232-2.929l1.235-2.482c.391-.896 1.509-1.659 2.488-1.695zm-33.799-4.453c-2.893 0-5.239-2.346-5.239-5.241 0-2.894 2.347-5.239 5.239-5.239 2.895 0 5.239 2.346 5.239 5.239 0 2.895-2.344 5.241-5.239 5.241z" opacity=".5"/><path d="m1160 26.668c-.491.151-1.003.256-1.544.256-2.913 0-5.276-2.363-5.276-5.276 0-.775.177-1.505.478-2.168h-24.111c-.062.69-.11 1.439-.11 2.168v.132c.01.145-.753.519-1.688.831l-4.571 1.523c-.935.312-1.597 1.365-1.474 2.344l.539 3.118c.213.962 1.193 1.778 2.179 1.813l4.999.18c.985.036 2.112.804 2.503 1.707l1.244 2.5c.49.854.386 2.181-.233 2.95l-3.043 3.779c-.617.767-.609 2.017.018 2.775l2.268 2.497c.697.698 1.96.857 2.808.354l4.297-2.548c.849-.502 2.204-.455 3.015.106l1.994 1.225c.862.476 1.483 1.665 1.378 2.646l-.521 4.859c-.106.979.573 2.04 1.508 2.354l3.362.95c.96.224 2.106-.314 2.547-1.195l2.215-4.42c.441-.881 1.604-1.542 2.589-1.468 0 0 .121.009 1.09.009.972 0 1.091-.009 1.091-.009.148-.011.3-.001.453.02v-24.012z" fill="#fff" opacity=".2"/></g><g fill="#fff"><circle cx="1104.3311" cy="69.108002" r="5.24"/><path d="m1065 10v100h100v-100zm75.829 63.904-.536 3.096c-.21.957-1.184 1.766-2.163 1.801l-4.962.179c-.979.036-2.098.798-2.488 1.695l-1.235 2.482c-.486.848-.383 2.167.232 2.929l3.021 3.752c.614.762.606 2.003-.017 2.756l-2.253 2.479c-.692.694-1.946.852-2.786.353l-4.268-2.53c-.842-.499-2.188-.452-2.994.104l-1.98 1.218c-.856.472-1.474 1.654-1.37 2.626l.521 4.824c.104.974-.57 2.025-1.498 2.338l-3.339.943c-.952.223-2.091-.312-2.53-1.186l-2.197-4.39c-.438-.875-1.597-1.531-2.572-1.458 0 0-.118.01-1.083.01-.963 0-1.083-.01-1.083-.01-.977-.073-2.133.583-2.57 1.458l-2.2 4.39c-.438.874-1.575 1.408-2.527 1.186l-3.34-.943c-.929-.312-1.602-1.364-1.497-2.338l.518-4.824c.104-.973-.511-2.155-1.369-2.626l-1.982-1.218c-.804-.557-2.152-.604-2.994-.105l-4.267 2.53c-.842.5-2.096.341-2.787-.352l-2.251-2.479c-.624-.753-.632-1.994-.02-2.756l3.022-3.752c.613-.762.718-2.081.231-2.929l-1.234-2.482c-.391-.896-1.509-1.659-2.485-1.695l-4.965-.179c-.979-.035-1.952-.845-2.164-1.801l-.534-3.097c-.124-.971.534-2.018 1.463-2.326l4.54-1.514c.928-.31 1.682-.681 1.675-.824 0 0 0 0 0-.132 0-2.226.436-4.719.436-4.719.167-.963-.354-2.209-1.157-2.768l-4.073-2.83c-.804-.558-1.182-1.766-.84-2.681l1.134-2.681c.423-.884 1.544-1.408 2.49-1.167l4.641 1.183c.948.242 2.19-.211 2.762-1.006l2.472-3.015c.669-.714.909-2.039.535-2.942l-1.877-4.536c-.375-.903-.035-2.117.753-2.695l2.273-1.518c.835-.509 2.064-.341 2.731.375l3.28 3.522c.666.715 1.961 1.015 2.873.665l4.049-1.227c.951-.223 1.874-1.193 2.048-2.156l.861-4.768c.176-.963 1.115-1.805 2.092-1.871 0 0 .287-.02 1.336-.02s1.337.02 1.337.02c.977.066 1.917.908 2.091 1.871l.863 4.768c.174.963 1.095 1.933 2.048 2.156l4.049 1.227c.912.351 2.204.051 2.872-.665l3.279-3.522c.668-.716 1.897-.884 2.731-.375l2.273 1.518c.789.579 1.129 1.792.754 2.696l-1.876 4.535c-.374.903-.135 2.228.535 2.942l2.471 3.015c.571.795 1.814 1.248 2.763 1.006l4.639-1.183c.948-.241 2.068.283 2.489 1.167l1.134 2.68c.342.917-.036 2.124-.84 2.682l-4.071 2.83c-.805.558-1.324 1.804-1.156 2.768 0 0 .433 2.493.433 4.719v.132c-.01.143.75.514 1.678.824l4.54 1.514c.927.309 1.586 1.356 1.462 2.327zm19.171-23.225c-.153-.021-.305-.031-.453-.02 0 0-.119.009-1.091.009-.969 0-1.09-.009-1.09-.009-.984-.074-2.147.586-2.589 1.468l-2.215 4.42c-.44.88-1.587 1.418-2.547 1.195l-3.362-.95c-.935-.314-1.614-1.375-1.508-2.354l.521-4.859c.105-.98-.516-2.17-1.378-2.646l-1.994-1.225c-.811-.561-2.166-.608-3.015-.106l-4.297 2.548c-.848.502-2.11.344-2.808-.354l-2.268-2.497c-.627-.759-.635-2.008-.018-2.775l3.043-3.779c.619-.769.724-2.095.233-2.95l-1.244-2.5c-.391-.903-1.518-1.671-2.503-1.707l-4.999-.18c-.985-.035-1.966-.852-2.179-1.813l-.539-3.118c-.123-.979.539-2.032 1.474-2.344l4.571-1.523c.936-.312 1.695-.686 1.688-.831 0 0 0 0 0-.132 0-.729.048-1.478.11-2.168h24.111c-.301.663-.478 1.393-.478 2.168 0 2.914 2.363 5.276 5.276 5.276.541 0 1.053-.105 1.544-.256v24.012z"/></g></g></svg>