<svg xmlns="http://www.w3.org/2000/svg" width="40" height="40" viewBox="0 0 10.583333 10.583334"><path d="M2.117 1.323a.792.792 0 0 0-.794.794v6.35c0 .44.354.793.794.793h6.35c.44 0 .793-.354.793-.793V5.39L6.928 7.723a.53.53 0 0 1-.002 0c-.443.44-1.165.46-1.631.044v.003L2.916 5.654a1.198 1.198 0 0 1-.102-1.683 1.197 1.197 0 0 1 1.682-.098l1.541 1.371 2.91-2.91c.092-.091.199-.164.313-.221a.792.792 0 0 0-.793-.79zM9.26 3.519L6.434 6.346a.53.53 0 0 1-.727.019L3.793 4.662c-.06-.053-.135-.048-.188.012a.53.53 0 0 1-.002 0c-.053.06-.047.135.012.187a.53.53 0 0 1 .002 0l2.381 2.115a.53.53 0 0 1 0 .002c.056.05.127.046.18-.005L9.26 3.89z" class="background" fill="#e6e6e6"/><path d="M9.762 2.514a.661.661 0 0 0-.44.193L6.06 5.971 4.145 4.268a.661.661 0 1 0-.88.99l2.381 2.115a.662.662 0 0 0 .907-.025l3.705-3.705a.661.661 0 0 0-.496-1.13z" class="foreground" fill="#666"/></svg>