<svg height="103" width="200" xmlns="http://www.w3.org/2000/svg"><path d="m-2.21875-4.4375v107.34375h208.96875v-107.34375zm83.293912 19.4375h37.909408v34.275372h-37.909408z" fill="#fff"/><g transform="matrix(.36533956 0 0 .36533956 55.482765 8.718158)"><g transform="translate(34.976666 5.830576)"><path d="m43.133 54.098c-.491-.583-1.324.874 0 0z" opacity=".2"/><path d="m85.5 30.5c0-3.287 44.158 22.412 44.158 22.412v-5.341c0-3.478-1.478-6.437-4.433-8.871l-31.079-20.879c-3.508-2.783-11.711-2.783-15.22 0l-31.079 20.879c-2.954 2.434-4.433 5.393-4.433 8.871l-.09 6.397" opacity=".5"/></g><path d="m126.10067 83.835575h-9.199c-5.189 0-7.784 2.595-7.784 7.666v19.419005h24.649v-19.419005c0-5.071-2.595-7.666-7.666-7.666z" opacity=".5"/><g transform="translate(34.976666 5.830576)"><path d="m43.25 59.295h.164v-.795h-.153z" fill="none"/><g fill="#fff"><path d="m43.414 55.537v-.102c0-.418-.038-.722-.097-.947l-.056 4.012h.153v-2.646z" opacity=".2"/><path d="m43.133 54.098c-.491-.583-1.324.874 0 0z" opacity=".2"/><path d="m43.133 54.098c.071.084.136.205.185.39l.007-.519c-.072.051-.13.088-.192.129z" opacity=".2"/><path d="m129.658 52.912v2.522c0-3.286 2.245-.758 0-2.522z" opacity=".2"/></g></g><g fill="#fff"><path d="m68.476666 14.080575v104.250005h106.750004v-104.250005zm65.290004 96.840005h-24.648v-19.419005c0-5.071 2.595-7.666 7.784-7.666h9.199c5.071 0 7.666 2.595 7.666 7.666v19.419005zm30.868-30.154005v20.721005c0 5.189-4.281 9.433-9.513 9.433h-7.417-8.688v-21.922005c0-7.231-3.701-10.932-10.932-10.932h-13.118c-7.399 0-11.099 3.701-11.099 10.932v21.922005h-8.549004-7.416c-5.232 0-9.513-4.244-9.513-9.433v-20.721005-14.622c.131-.097.267-.198.432-.334l35.080004-24.879c3.508-2.783 11.711-2.783 15.22 0l35.079 23.879c.163.134.301.245.433.348v15.608zm0-22.107v1.15c0-.409-.025-.809-.066-1.203-.113-.09-.229-.181-.367-.295l-35.079-23.879c-3.509-2.783-11.712-2.783-15.22 0l-35.080004 24.878c-.161.133-.293.231-.422.327-.001.061-.01.12-.01.181l-.09-.104.001-.001s-.001.001-.001.001l.09-6.396c0-3.479 1.479-6.438 4.433-8.871l31.079004-20.879c3.509-2.783 11.712-2.783 15.22 0l31.079 20.879c2.955 2.434 4.433 5.393 4.433 8.871z"/><path d="m43.133 54.098c-.491-.583-1.324.874 0 0z" opacity=".2" transform="translate(34.976666 5.830576)"/></g></g></svg>