<svg enable-background="new" height="103" width="200" xmlns="http://www.w3.org/2000/svg"><path d="m-5.919-4.4375v107.34375h208.96875v-107.34375h-208.96875zm83.75 17.875h37v36.125h-37z" fill="#fff"/><g transform="matrix(.39 0 0 .39 -200.4 8.39900035)"><path d="m769.211 65.575.187-.938c.375-2.72-.845-4.126-3.564-4.126h-6.938l2.344-13.128h7.689c2.438 0 3.847-1.219 4.22-3.563l.095-.845c.469-2.625-.844-4.22-3.562-4.22h-7.034l2.626-14.535c.374-2.813-.845-4.22-3.563-4.22h-1.688c-2.438 0-3.845 1.22-4.22 3.563l-2.72 15.191h-12.754l2.533-14.535c.468-2.626-.844-4.22-3.563-4.22h-1.595c-2.344 0-3.845 1.22-4.313 3.563l-2.624 15.191h-7.503c-2.345 0-3.752 1.219-4.127 3.563l-.187.938c-.376 2.531.937 4.125 3.562 4.125h6.846l-2.344 13.128h-7.597c-2.531 0-3.844 1.125-4.125 3.469l-.188.938c-.469 2.72.656 4.126 3.563 4.126h6.844l-2.344 13.316c-.376 2.813.845 4.22 3.563 4.22h1.688c2.346 0 3.845-1.219 4.313-3.563l2.345-13.972h12.848l-2.344 13.319c-.469 2.626.843 4.22 3.562 4.22h1.688c2.438 0 3.845-1.219 4.22-3.563l2.438-13.972h7.502c2.438-.001 3.845-1.126 4.221-3.47zm-19.881-5.064h-12.752l2.25-13.128h12.847z" opacity=".5"/><g fill="#fff"><path d="m798.335 30h-11.177-1.398-14.419l-.329 1.822c2.854.292 5.311 1.533 7.013 3.565 1.906 2.276 2.666 5.304 2.153 8.552l-.074.66-.018.16-.025.16c-.842 5.288-4.607 8.855-9.757 9.392 1.734.689 2.94 1.714 3.743 2.636 1.37 1.572 2.878 4.347 2.286 8.646l-.029.206-.04.204-.166.834c-.965 5.6-5.309 9.208-11.107 9.208h-1.618l-1.42 8.135c-.939 5.713-5.299 9.4-11.123 9.4h-1.688c-3.42 0-6.384-1.29-8.345-3.633-.836-.999-1.452-2.143-1.836-3.385-1.242 3.156-3.677 5.435-6.802 6.44v1.998c0 5.5 4.5 10 10 10h56.177c5.5 0 10-4.5 10-10v-21.967-33.033c-.001-5-5.002-10-10.001-10z" opacity=".06"/><g><path d="m751.674 47.382h-12.846l-2.25 13.129h12.752z"/><path d="m710 10v100h100v-100zm18.418 76.58h-1.688c-2.719 0-3.939-1.407-3.563-4.22l2.344-13.316h-6.844c-2.907 0-4.032-1.407-3.563-4.126l.188-.938c.281-2.344 1.594-3.469 4.125-3.469h7.597l2.344-13.128h-6.846c-2.626 0-3.938-1.594-3.562-4.125l.187-.938c.375-2.344 1.782-3.563 4.127-3.563h7.503l2.624-15.191c.469-2.344 1.97-3.563 4.313-3.563h1.595c2.72 0 4.031 1.594 3.563 4.22l-2.533 14.535h12.754l2.72-15.191c.375-2.344 1.782-3.563 4.22-3.563h1.688c2.719 0 3.938 1.407 3.563 4.22l-2.626 14.535h7.034c2.719 0 4.031 1.594 3.562 4.22l-.095.845c-.373 2.344-1.781 3.563-4.22 3.563h-7.689l-2.344 13.128h6.938c2.72 0 3.939 1.406 3.564 4.126l-.187.938c-.376 2.344-1.783 3.47-4.221 3.47h-7.502l-2.438 13.972c-.375 2.345-1.781 3.563-4.22 3.563h-1.688c-2.72 0-4.031-1.594-3.562-4.22l2.345-13.316h-12.848l-2.345 13.972c-.469 2.341-1.968 3.56-4.314 3.56zm79.917-13.547v21.967c0 5.5-4.5 10-10 10h-56.177c-5.5 0-10-4.5-10-10v-1.997c3.125-1.005 5.56-3.284 6.802-6.44.384 1.242 1 2.386 1.836 3.385 1.961 2.343 4.925 3.633 8.345 3.633h1.688c5.824 0 10.184-3.688 11.123-9.4l1.42-8.135h1.618c5.798 0 10.142-3.609 11.107-9.208l.166-.834.04-.204.029-.206c.592-4.298-.916-7.074-2.286-8.646-.803-.921-2.009-1.947-3.743-2.636 5.15-.537 8.916-4.104 9.757-9.392l.025-.16.018-.16.074-.66c.513-3.248-.248-6.275-2.153-8.552-1.702-2.033-4.159-3.273-7.013-3.565l.33-1.823h14.419 1.398 11.177c4.999 0 10 5 10 10z"/></g></g></g></svg>