<svg enable-background="new 0 0 200 103" height="103" viewBox="0 0 200 103" width="200" xmlns="http://www.w3.org/2000/svg"><g fill="#fff" transform="matrix(.39000001 0 0 .39 52.212837 18.295622)"><path d="m78.9-15.6v100h100c0-20.7 0-41.4 0-62.2 0 0 0 0-.1 0v.4c-.1.4-.3.7-.6 1-.4.5-.7.9-.9 1.1-2.6 3-5.2 6.1-7.9 9.1-.7.8-1.4 1.7-2.2 2.5-.1.1-.2.3-.5.4-.4.2-.7.1-.8.1-.7-.1-1.3-.7-1.5-1-.5-.6-1.2-1.3-2.2-2.3-1.8-1.8-3.6-3.6-4.4-4.4 0 0-.1-.1-.2-.2s-.2-.3-.3-.3c-.1-.1-.3-.3-.5-.6 0 0-.1-.1-.1-.2-.1-.2-.1-.4-.2-.5 0-.8 0-1.6 0-2.4-.3 0-.5 0-.8.1-.8.1-1.4.4-2 .6-1.6.8-2.8 1.4-2.8 1.4-1.1.7-2.7 1.6-4.5 3-1.4 1.5-4.4 4.9-5.8 6.4-7.3 8.1-14.5 16.2-21.8 24.3-.5.6-1.2 1.4-2.2 2.2-1.7 1.5-2.5 2.3-3.6 2.7-2.5 1-5.6.2-7.6-1.5-1.1-.9-1.6-1.8-1.9-2.4-.4-.7-1.6-2.9-1.1-5.7.3-1.6 1-2.7 1.6-3.4 2.7-2.8 5.4-5.6 8.1-8.5.3-.4-.4.3 14.4-14.7 2.2-2.2 5.1-5.2 8.7-8.7 3-2.5 4.3-5.1 4.8-6.4.5-1.4.6-2.4.7-2.7.2-2.5-.6-4.6-1.2-5.6-.4-.7-1.1-1.6-2.2-2.4-1-.7-1.8-.9-3.3-1.4-1.7-.5-3.1-.7-4.3-.8-1-.1-2.2-.2-3.7-.2-.1 0-.8-.2-1-.9-.3-.7.1-1.4.1-1.5.3-.4.7-.9 1.3-1.5.8-.9 1.6-1.4 2-1.7 2.2-1.7 4.5-2.6 4.6-2.7 3.3-1.4 6.2-1.4 7.7-1.4s4.1 0 7.3 1.2c2.6 1 4.4 2.3 6 3.6.9.7 1.3 1.1 5.7 5.7 3.3 3.4 4.7 4.8 6.8 7 1.2 1.2 2.2 2.2 2.9 2.9.1.8.1 1.6.2 2.4h2c.3.2.6.5 1 .7.4.4.8.9 1.2 1.3l2.3 2.3c.5.5 1.2 1.2 2 2.1.2.3.5.5.7.8 0 .1.1.2.1.3.1.2.1.3.1.5h.1c0-.2 0-.5 0-.7 0-12.4 0-24.7 0-37.1-33.5-.1-66.8-.1-100.2-.1zm81.2 85c0 5.5-4.5 10-10 10h-56.2c-5.5 0-10-4.5-10-10v-55c0-5.5 4.5-10 10-10h11.3 14.5c.4.5 1 1.1 1.8 1.7.9.7 1.8 1.1 2.4 1.3.4.1 1 .3 1.8.4 1.1.1 1.2 0 2.6.1.4 0 1.2.1 2.9.4.5.1.8.1 1.3.3.7.2 1.1.6 1.4.9.1.2.1.4.2.6 0 0 .2.9 0 1.8-.2 1.4-1.8 2.8-1.8 2.8-1.7 1.5-13.7 13.7-30.5 30.7-1.4 1.4-2.5 2.5-3.7 4.5-.7 1.1-2.8 5.1-2 10.3.7 4.3 3.1 7 3.7 7.6.7.7 4.3 4.5 10.3 4.7 6.4.2 10.4-3.8 11.1-4.5 17.5-19.4 28.3-31.4 29.1-32.4.1-.1.4-.6 1.1-1.1.6-.5 1.2-.7 1.6-.9 1.4 1.6 3 3.3 4.9 5 .8.7 1.5 1.4 2.3 2v1.9 9.7c-.1 4.5-.2 3.8-.2 6.2-.1 3.4.1 5.9.1 11zm18.8-20988.1v42007.7m.4-21066.6"/><path d="m276.7 131.3c0 14.1-11.5 25.6-25.6 25.6h-144.1c-14.1 0-25.6-11.5-25.6-25.6v-141c0-14.1 11.5-25.6 25.6-25.6h28.9 37.3c1 1.3 2.5 2.9 4.6 4.4 2.3 1.7 4.5 2.7 6.2 3.3 1.1.3 2.7.7 4.6.9 2.8.3 3.2 0 6.8.2 1 .1 3.2.3 7.5.9 1.3.2 2.2.3 3.3.7 1.7.6 2.9 1.6 3.7 2.3.1.4.3 1 .4 1.6 0 0 .4 2.2 0 4.5-.6 3.5-4.5 7.3-4.5 7.3-4.3 3.9-35.2 35.2-78.1 78.7-3.5 3.7-6.5 6.5-9.6 11.4-1.8 2.9-7.3 13.1-5.1 26.3 1.8 11 7.9 17.9 9.5 19.6 1.7 1.9 11.1 11.5 26.3 12.1 16.3.6 26.7-9.8 28.4-11.5 44.9-49.6 72.6-80.6 74.5-83.1.2-.2 1.1-1.6 2.7-2.9 1.5-1.2 3-1.9 4.1-2.3 3.6 4.2 7.8 8.5 12.5 12.9 2 1.8 3.9 3.5 5.8 5.2 0 1.2 0 2.8.1 4.8 0 3.9.1 13.9-.1 24.7-.2 11.6-.4 9.7-.4 15.9-.2 9.2.3 15.6.3 28.7zm2.8-66.3" opacity=".2" transform="matrix(.39000001 0 0 .39 52.212837 18.295622)"/></g><path d="m121.8 26.6-2.5-2.5c-.1-.1-.3-.2-.4-.2h-.6v-.6c0-.2-.1-.3-.2-.4l-5-5c-1-1-2.7-2.7-6-2.7-3.4 0-4.9 1.6-6 2.7-.2.2-.2.5-.1.7s.3.4.6.4c5 0 5.6 2.2 5.6 3.8 0 2-1.6 3.3-1.6 3.3l-12.5 12.3c-.6.6-.9 1.4-.9 2.4 0 1.8 1.4 3.3 3.2 3.3.9 0 1.8-.4 2.4-1.1l11.6-13c1.7-1.3 3.3-2 3.9-2v.9c0 .2.1.3.2.4l3.1 3.2c.1.1.3.2.4.2.2 0 .3-.1.4-.2l4.3-5c.3-.3.3-.7.1-.9z" opacity=".5"/><path d="m1-4.4v107.3h209v-107.3zm83.8 17.8h37v36.1h-37z" fill="#fff"/></svg>