<svg enable-background="new" height="103" width="200" xmlns="http://www.w3.org/2000/svg"><path d="m.881-4.4375v107.34375h208.96875v-107.34375zm83.75 17.875h37v36.125h-37z" fill="#fff"/><g transform="matrix(.39000001 0 0 .39 52.212837 18.295622)"><path d="m380 66.57c0-5.061 3.229-6.605 7.168-3.366l21.648 17.287 44.018-33.731c3.938-3.24 7.166-1.832 7.166 2.805v4.076c0 2.816-1.121 5.209-3.365 7.178l-43.73 33.309c-2.68 2.255-5.484 2.255-8.164 0l-21.361-16.863c-2.256-1.97-3.379-4.362-3.379-7.179v-3.516z" opacity=".5" transform="translate(-286.05856 -25.581081)"/><g fill="#fff"><path d="m131.20444 74.024919c-2.557 2.102-5.472 3.212-8.44 3.212-2.989 0-5.923-1.125-8.494-3.255l-21.553998-17.026c-3.778-3.3-5.775-7.605-5.775-12.453v-3.514c0-8.289 5.366-12.064 10.352-12.064 1.935 0 4.927998.566 8.218998 3.255l17.335 13.842 37.271-28.562v-3.041c0-5.0000001-5.001-10.0000001-10-10.0000001h-11.177-1.398-43.601998c-5.5 0-10 4.5-10 10.0000001v55c0 5.5 4.5 10 10 10h56.176998c5.5 0 10-4.5 10-10v-17.417z" opacity=".2"/><path d="m78.941442-15.581081v100h99.999998v-100zm81.176998 85c0 5.5-4.5 10-10 10h-56.176998c-5.5 0-10-4.5-10-10v-55c0-5.5000001 4.5-10.0000001 10-10.0000001h43.601998 1.398 11.177c4.999 0 10 5 10 10.0000001v3.042l-37.271 28.562-17.336-13.843c-3.291-2.689-6.283998-3.255-8.218998-3.255-4.986 0-10.352 3.775-10.352 12.064v3.515c0 4.847 1.997 9.153 5.775 12.452l21.553998 17.026c2.57 2.13 5.505 3.255 8.494 3.255 2.968 0 5.883-1.11 8.44-3.212l28.914-22.023v17.417zm13.823-41.36c0 2.816-1.121 5.209-3.365 7.178l-43.73 33.309c-2.68 2.255-5.484 2.255-8.164 0l-21.360998-16.863c-2.256-1.97-3.379-4.362-3.379-7.179v-3.515c0-5.061 3.229-6.605 7.167998-3.366l21.648 17.287 44.018-33.731c3.938-3.24 7.166-1.832 7.166 2.805v4.075z"/></g></g></svg>