<svg xmlns="http://www.w3.org/2000/svg" width="40" height="40" viewBox="0 0 10.583333 10.583334"><path d="M3.295 1.323l-.055.265h.485l.056-.265zm2.647 0l-.066.32c.424.138.74.536.74 1.003 0 .579-.48 1.06-1.06 1.06h-.11l-.055.263h.166c.578 0 1.058.48 1.058 1.059 0 .578-.48 1.058-1.058 1.058H4.95l-.21 1.008a1.067 1.067 0 0 1-1.25.82.53.53 0 0 1-.002 0 1.066 1.066 0 0 1-.82-1.25l.12-.578h-.484l-.21 1.008a1.063 1.063 0 0 1-.771.802v.57c0 .44.354.794.794.794h6.35c.44 0 .793-.354.793-.793v-6.35a.792.792 0 0 0-.793-.794zM2.8 3.705l-.054.264h.485l.055-.264z" class="background" fill="#e6e6e6"/><path d="M2.367 0a.53.53 0 0 0-.504.422L1.51 2.117H.53a.53.53 0 0 0-.53.53.53.53 0 0 0 .53.529h.76l-.276 1.322H.53a.53.53 0 0 0-.529.53.53.53 0 0 0 .53.528h.264L.541 6.771a.53.53 0 0 0 .41.625.53.53 0 0 0 .625-.41l.298-1.43h1.564l-.253 1.215a.53.53 0 0 0 .41.625.53.53 0 0 0 .627-.41l.298-1.43h1.036a.53.53 0 0 0 .53-.529.53.53 0 0 0-.53-.53H4.74l.276-1.321h.54a.53.53 0 0 0 .53-.53.53.53 0 0 0-.53-.529h-.32l.308-1.48a.53.53 0 0 0-.41-.625.53.53 0 0 0-.12-.012.53.53 0 0 0-.505.422l-.353 1.695H2.59l.308-1.48a.53.53 0 0 0-.41-.625.53.53 0 0 0-.12-.012zm.003 3.176h1.565l-.276 1.322H2.094z" class="foreground" fill="#666"/></svg>