<svg xmlns="http://www.w3.org/2000/svg" width="40" height="40" viewBox="0 0 10.583333 10.583334"><path d="M3.175 3.969a.792.792 0 0 0-.794.794v.528h.484l.84.84.838-.84h2.865a.253.253 0 0 0 .266-.263v-1.06zm5.555 0v1.059a1.33 1.33 0 0 1-1.322 1.321H4.983L3.705 7.627l-1.28-1.278h-.044v1.324c0 .44.354.794.794.794h2.646l1.058 1.058 1.059-1.058H9.26c.44 0 .794-.354.794-.794v-2.91a.792.792 0 0 0-.794-.794z" class="background" fill="#e6e6e6"/><path class="foreground" d="M1.323 5.82h1.323l1.058 1.06 1.059-1.06h2.645c.44 0 .794-.353.794-.793v-2.91a.792.792 0 0 0-.794-.794H1.323a.792.792 0 0 0-.794.794v2.91c0 .44.354.794.794.794z" fill="#666"/></svg>