<svg height="103" width="200" xmlns="http://www.w3.org/2000/svg"><path d="m.881-4.4375v107.34375h208.96875v-107.34375zm83.75 17.875h37v36.125h-37z" fill="#fff"/><g transform="translate(0 1)"><g transform="matrix(.39 0 0 .39 9.136241 7.373414)"><path d="m249.828 83.305 35.709-35.708c2.455-2.455 2.455-6.472 0-8.927l-13.391-13.39c-1.227-1.228-2.846-1.841-4.463-1.841-1.619 0-3.236.614-4.463 1.841l-35.709 35.708c-2.453 2.455-4.719 7.292-5.033 10.75l-1.09 11.976c-.297 3.266 1.98 5.741 5.148 5.741.186 0 .375-.008.566-.026l11.975-1.089c3.46-.314 8.296-2.58 10.751-5.035z" opacity=".5"/><path d="m239.713 95.311-11.977 1.089c-.4.037-.803.055-1.199.055-3.52 0-6.725-1.387-9.025-3.906-2.318-2.54-3.418-5.902-3.094-9.468l1.088-11.976c.465-5.105 3.434-11.441 7.057-15.065l26.039-26.04h-43.602c-5.5 0-10 4.5-10 10v55c0 5.5 4.5 10 10 10h55c5.5 0 10-4.5 10-10v-21.967l-15.223 15.222c-3.625 3.625-9.961 6.593-15.064 7.056z" fill="#fff" opacity=".2"/></g><path d="m83.2 11.273v39h39v-39zm31.2 33.15c0 2.145-1.755 3.9-3.9 3.9h-21.45c-2.145 0-3.9-1.755-3.9-3.9v-21.45c0-2.145 1.755-3.9 3.9-3.9h17.00478l-10.15521 10.15521c-1.41297 1.41375-2.57088 3.8844-2.75223 5.87535l-.42432 4.67064c-.12636 1.39074.30225 2.70231 1.20666 3.69252.89739.98241 2.14734 1.52334 3.51975 1.52334.15444 0 .31161-.007.46761-.02145l4.67103-.42471c1.99056-.18057 4.46121-1.33809 5.87496-2.75184l5.93697-5.93619zm6.05943-18.48678-13.92651 13.92612c-.95745.95745-2.84349 1.84119-4.1925 1.96365l-4.67025.42471c-.0745.007-.14859.01014-.22074.01014-1.23552 0-2.12355-.96525-2.00772-2.23899l.4251-4.67064c.12246-1.34862 1.0062-3.23466 1.96287-4.1925l13.92651-13.92612c.47853-.47892 1.10916-.71799 1.74057-.71799.63063 0 1.26204.23946 1.74057.71799l5.22249 5.22249c.95706.95667.95706 2.52369-.00039 3.48114z" fill="#fff"/></g></svg>