<svg xmlns="http://www.w3.org/2000/svg" viewBox="0 0 64 64" width="64" height="64">
  <rect fill="#fff" x="2" y="2" width="60" height="60" rx="2" ry="2"/>
  <g fill="#006600">
    <path d="M54.5 16.88H21.82a4.98 4.98 0 00-9.64 0H9.5a1.25 1.25 0 000 2.5h2.68a4.98 4.98 0 009.64 0H54.5a1.25 1.25 0 000-2.5zM17 20.63a2.5 2.5 0 112.5-2.5 2.5 2.5 0 01-2.5 2.5zM54.5 30.63h-2.68a4.98 4.98 0 00-9.64 0H9.5a1.25 1.25 0 000 2.5h32.68a4.98 4.98 0 009.64 0h2.68a1.25 1.25 0 000-2.5zM47 34.38a2.5 2.5 0 112.5-2.5 2.5 2.5 0 01-2.5 2.5zM54.5 44.38H21.82a4.98 4.98 0 00-9.64 0H9.5a1.25 1.25 0 000 2.5h2.68a4.98 4.98 0 009.64 0H54.5a1.25 1.25 0 000-2.5zM17 48.12a2.5 2.5 0 112.5-2.5 2.5 2.5 0 01-2.5 2.5z" style="paint-order: fill; vector-effect: non-scaling-stroke; fill: rgb(136, 136, 136);"/>
    <path stroke="#666666" d="M 58.4 2 L 5.6 2 C 3.612 2 2 3.752 2 5.913 L 2 58.097 C 2.006 60.254 3.616 62 5.6 62 L 58.4 62 C 60.384 62 61.994 60.254 62 58.097 L 62 5.913 C 62 3.752 60.388 2 58.4 2 Z M 59.6 58.087 C 59.606 58.811 59.066 59.402 58.4 59.402 L 5.6 59.402 C 4.934 59.402 4.394 58.811 4.4 58.087 L 4.4 5.903 C 4.405 5.187 4.941 4.609 5.6 4.609 L 58.4 4.609 C 59.062 4.609 59.6 5.193 59.6 5.913 Z" stroke-width="1.25" style="fill: rgb(102, 102, 102); paint-order: fill; vector-effect: non-scaling-stroke;"/>
  </g>
</svg>