<svg xmlns="http://www.w3.org/2000/svg" width="64" height="64" viewBox="0 0 64 64"><path d="M32 0A32 32 0 0 0 0 32a32 32 0 0 0 32 32 32 32 0 0 0 32-32A32 32 0 0 0 32 0zm-3.402 8H35.1c.903 0 1.67.315 2.302.947.633.633.95 1.402.95 2.305v14.092h14.091c.904 0 1.673.316 2.305.949.633.632.947 1.4.947 2.303v6.506c0 .903-.315 1.67-.947 2.302-.632.632-1.4.948-2.305.948H38.352v14.093c0 .904-.316 1.67-.948 2.303a3.14 3.14 0 0 1-2.304.95h-6.504c-.904 0-1.67-.318-2.303-.95a3.136 3.136 0 0 1-.95-2.303V38.352H11.253c-.904 0-1.672-.316-2.305-.948-.632-.633-.947-1.4-.947-2.302v-6.506c0-.903.315-1.671.947-2.303a3.142 3.142 0 0 1 2.305-.95h14.094V11.253c0-.904.316-1.672.949-2.305.632-.632 1.4-.947 2.303-.947z" fill="#fff"/></svg>