<svg xmlns="http://www.w3.org/2000/svg" width="16" height="16" viewBox="0 0 4.2333307 4.2333307"><path d="M2.09 0A2.117 2.117 0 0 0 .62.62a2.117 2.117 0 0 0 0 2.995 2.117 2.117 0 0 0 2.995 0 2.117 2.117 0 0 0 0-2.994A2.117 2.117 0 0 0 2.09 0zm-.108.733h.27c.053 0 .097.018.134.055A.181.181 0 0 1 2.44.92v.868h.868c.052 0 .097.018.133.055a.181.181 0 0 1 .055.133v.27a.181.181 0 0 1-.055.134.182.182 0 0 1-.133.055H2.44v.868a.182.182 0 0 1-.055.133.181.181 0 0 1-.133.055h-.27a.181.181 0 0 1-.134-.055.181.181 0 0 1-.055-.133v-.868H.926a.195.195 0 0 1-.133-.055.182.182 0 0 1-.055-.134v-.27c0-.052.018-.097.055-.133a.181.181 0 0 1 .133-.055h.868V.921c0-.052.018-.097.055-.133a.181.181 0 0 1 .133-.055z" fill="#fff"/></svg>