<svg viewBox="0 0 24 24"
		 width="64"
		 height="64"
		 xmlns="http://www.w3.org/2000/svg">
  <rect x="2" width="20" height="24" fill="#cdd0d2" rx="1"/>
  <g fill="#546d79">
    <path d="M5.5 9.35a.825.825 0 01-.825-.825v-4.95c0-.455.37-.825.825-.825h1.375c1.213 0 2.2.986 2.2 2.2s-.987 2.2-2.2 2.2h-.55v1.375c0 .455-.37.825-.825.825zm.825-3.85h.55a.55.55 0 000-1.1h-.55zM16.5 9.35a.825.825 0 01-.825-.825v-4.95c0-.455.37-.825.825-.825h1.375c1.213 0 2.2.986 2.2 2.2s-.987 2.2-2.2 2.2h-.55v1.375c0 .455-.37.825-.825.825zm.825-3.85h.55a.55.55 0 000-1.1h-.55zM13.75 2.75a.825.825 0 00-.825.825V5.5h-1.1V3.575a.825.825 0 00-1.65 0v4.95a.825.825 0 001.65 0V7.15h1.1v1.375a.825.825 0 001.65 0v-4.95a.825.825 0 00-.825-.825z"/>
  </g>
  <path stroke="#fff" stroke-width=".984375" stroke-opacity=".75" d="M22.579 18.073c.026-.203.062-.405.062-.617s-.037-.412-.062-.617l1.181-.895a.655.655 0 00.172-.85l-1.062-1.838a.655.655 0 00-.823-.277l-1.36.575a4.928 4.928 0 00-1.076-.639l-.18-1.446a.654.654 0 00-.65-.575h-2.123c-.33 0-.61.245-.65.575l-.182 1.446c-.39.163-.743.387-1.075.64l-1.36-.576a.655.655 0 00-.824.277l-1.062 1.838a.655.655 0 00.172.85l1.182.895c-.027.204-.062.406-.062.617s.037.412.062.617l-1.182.895a.655.655 0 00-.172.85l1.062 1.838a.655.655 0 00.823.277l1.361-.575c.332.252.685.477 1.075.64l.181 1.446c.04.328.32.575.65.575h2.122c.331 0 .61-.247.651-.575l.181-1.447c.39-.162.743-.387 1.075-.639l1.361.575c.305.129.658.01.823-.277l1.062-1.837a.655.655 0 00-.172-.85z" fill="#1d83d4"/>
	<circle cx="17.705" cy="17.455" r="2.625" fill="#fff"/>
</svg>
