<svg xmlns="http://www.w3.org/2000/svg"
		 width="64"
		 height="64"
		 viewBox="0 0 512 512">
  <path fill="#e2d9c5" d="M455 102.78h30.26v274.35H455z"/>
  <path d="M480.8 501.93h-21.27a13.03 13.03 0 01-13.01-13.74l8.54-157.08h30.22l8.54 157.08a13.03 13.03 0 01-13.01 13.74z" fill="#b57947"/>
  <path d="M480.98 133.44h-41.6V83.69h41.6a23.56 23.56 0 0123.55 23.56v2.65c0 13-10.55 23.55-23.55 23.55z" fill="#c6c5ca"/>
  <circle cx="238.82" cy="47.8" r="33.32" fill="#e2d9c5"/>
  <circle cx="238.82" cy="47.8" r="18.63" fill="#c6c5ca"/>
  <path d="M299.87 133.62l-40.6-18.91a48.43 48.43 0 00-40.9 0l-40.6 18.91a15.33 15.33 0 01-20.38-7.42l-10.32-22.15a15.33 15.33 0 017.42-20.38l63.87-29.76a48.43 48.43 0 0140.91 0l63.88 29.76c7.67 3.58 11 12.7 7.42 20.38l-10.32 22.15a15.33 15.33 0 01-20.38 7.42z" fill="#c6c5ca"/>
  <circle cx="238.82" cy="47.8" r="33.32" fill="#e2d9c5"/>
  <path d="M299.87 133.62l-40.6-18.91a48.43 48.43 0 00-40.9 0l-40.6 18.91a15.33 15.33 0 01-20.38-7.42l-10.32-22.15a15.33 15.33 0 017.42-20.38l63.87-29.76a48.43 48.43 0 0140.91 0l63.88 29.76c7.67 3.58 11 12.7 7.42 20.38l-10.32 22.15a15.33 15.33 0 01-20.38 7.42z" fill="#c6c5ca"/>
  <path d="M306.34 120.12c-.03 0-.08 0-.16-.04l-40.6-18.92a63.8 63.8 0 00-26.76-5.93 63.79 63.79 0 00-26.77 5.93l-40.6 18.92a.36.36 0 01-.15.04.4.4 0 01-.37-.23L160.6 97.74a.34.34 0 01-.01-.3c.05-.16.14-.2.2-.23l63.87-29.75a33.26 33.26 0 0114.15-3.14c4.92 0 9.68 1.06 14.14 3.14l63.88 29.75c.06.03.15.07.2.23.06.15.02.24-.01.3l-10.32 22.15a.4.4 0 01-.37.23z" fill="#d3d3d3"/>
  <circle cx="106.01" cy="108.56" r="98.54" fill="#e2d9c5"/>
  <path d="M175.7 38.88L36.32 178.24c38.48 38.49 100.88 38.49 139.36 0s38.49-100.87 0-139.36z" fill="#d6cbb4"/>
  <path d="M62.17 152.4c-24.18-24.17-24.18-63.5 0-87.68s63.51-24.18 87.69 0 24.17 63.51 0 87.69-63.52 24.17-87.7 0z" fill="#d1ede9"/>
  <path d="M149.85 64.72l-87.68 87.69c24.17 24.17 63.51 24.17 87.68 0s24.18-63.52 0-87.69z" fill="#b0e2dc"/>
  <circle cx="371.62" cy="108.56" r="98.54" fill="#e2d9c5"/>
  <path d="M441.3 38.88L301.94 178.24c38.49 38.49 100.88 38.49 139.37 0s38.48-100.87 0-139.36z" fill="#d6cbb4"/>
  <path d="M327.78 152.4c-24.17-24.17-24.17-63.5 0-87.68s63.51-24.18 87.69 0 24.17 63.51 0 87.69a62.07 62.07 0 01-87.69 0z" fill="#d1ede9"/>
  <path d="M415.47 64.72l-87.69 87.69c24.18 24.17 63.51 24.17 87.69 0s24.17-63.52 0-87.69z" fill="#b0e2dc"/>
  <path d="M106.01 39.12c-18.57 0-36.02 7.22-49.12 20.32s-20.32 30.55-20.32 49.12 7.21 36.02 20.32 49.13A69 69 0 00106 178c18.58 0 36.02-7.22 49.13-20.32s20.32-30.55 20.32-49.13-7.22-36.02-20.32-49.12A69 69 0 00106 39.12zm38.56 108a54.6 54.6 0 01-77.12 0c-10.28-10.28-15.94-23.97-15.94-38.56S57.17 80.28 67.45 70a54.37 54.37 0 0138.56-15.95A54.37 54.37 0 01144.57 70a54.6 54.6 0 010 77.12zM371.63 39.12c-18.58 0-36.03 7.22-49.13 20.32s-20.32 30.55-20.32 49.12 7.22 36.02 20.32 49.13S353.05 178 371.63 178s36.02-7.22 49.12-20.32 20.32-30.55 20.32-49.13-7.22-36.02-20.32-49.12-30.55-20.32-49.13-20.32zm38.56 108a54.6 54.6 0 01-77.13 0 54.6 54.6 0 010-77.12c10.64-10.63 24.6-15.95 38.57-15.95s27.93 5.32 38.56 15.95a54.6 54.6 0 010 77.12z"/>
  <path d="M480.98 76.21h-8.42A105.38 105.38 0 00446.6 33.6c-41.34-41.33-108.6-41.33-149.93 0a105.78 105.78 0 00-16.7 21.7l-.97-.44a40.83 40.83 0 00-40.17-47.85 40.83 40.83 0 00-40.18 47.85l-.96.45a105.8 105.8 0 00-16.7-21.7c-41.34-41.34-108.6-41.34-149.93 0C11.03 53.61 0 80.24 0 108.55s11.03 54.94 31.05 74.97a105.68 105.68 0 0074.96 31c27.15 0 54.3-10.34 74.96-31a105.42 105.42 0 0029.46-56.89l11.09-5.16c11-5.13 23.6-5.13 34.6 0l11.08 5.16a105.43 105.43 0 0029.46 56.88c20.67 20.67 47.82 31 74.96 31s54.3-10.33 74.97-31a105.35 105.35 0 0025.97-42.6h8.41A31.06 31.06 0 00512 109.88v-2.65a31.06 31.06 0 00-31.02-31.03zM170.4 172.96c-35.5 35.51-93.29 35.51-128.8 0-17.2-17.2-26.67-40.07-26.67-64.4s9.47-47.2 26.67-64.4a90.79 90.79 0 0164.4-26.63 90.79 90.79 0 0182.1 51.65 94.48 94.48 0 011.98 4.43l.34.78c.52 1.3 1 2.6 1.47 3.9l.12.37c11.05 31.94 3.85 68.84-21.61 94.3zm68.4-151a25.88 25.88 0 0125.85 26.23l-2.23-1.05a56.2 56.2 0 00-7.66-2.89l-.98-.3a55.76 55.76 0 00-38.58 3.2l-2.24 1.04v-.39a25.88 25.88 0 0125.85-25.85zm26.82 87.47l-3.2-1.5c-15-6.99-32.22-6.99-47.22 0l-3.2 1.5c.12-13.96-2.5-27.75-7.76-40.7l6.33-2.95h.01l10.93-5.1a40.86 40.86 0 0134.6 0l17.26 8.05a105.52 105.52 0 00-7.75 40.7zm194.43 20.8l-.01.05a90.53 90.53 0 01-24.03 42.68c-35.5 35.51-93.29 35.51-128.8 0-25.45-25.46-32.65-62.36-21.6-94.3l.12-.36c.46-1.31.95-2.61 1.47-3.9.1-.27.23-.53.34-.8a89.47 89.47 0 011.98-4.42 90.79 90.79 0 0182.1-51.64 90.79 90.79 0 0164.4 26.63 90.53 90.53 0 0124.03 42.73 91.76 91.76 0 010 43.33zm37-20.34a16.1 16.1 0 01-16.09 16.09h-4.8c.11-.63.19-1.26.28-1.89l.08-.58a105.66 105.66 0 001.02-12.3v-.29c.04-1.57.04-3.15 0-4.72v-.28c-.06-2.51-.2-5.02-.45-7.52v-.03a105.7 105.7 0 00-.57-4.75l-.08-.59c-.1-.62-.17-1.25-.27-1.88h4.8a16.1 16.1 0 0116.08 16.09v2.65zM492.74 330.7l-.02-.13V169.02a7.47 7.47 0 10-14.94 0v154.62h-15.31V202.2a7.47 7.47 0 10-14.94 0v129.77l-8.47 155.83a20.6 20.6 0 005.58 15.2 20.59 20.59 0 0014.89 6.41h21.28c5.6 0 11.02-2.33 14.88-6.4a20.6 20.6 0 005.59-15.21l-8.54-157.08zm-7.9 162.02a5.51 5.51 0 01-4.03 1.74h-21.28a5.51 5.51 0 01-4.04-1.74 5.51 5.51 0 01-1.51-4.12l8.15-150.02h16.08l8.15 150.02c.08 1.54-.46 3-1.52 4.12z"/>
</svg>
