<?xml version="1.0" encoding="UTF-8" standalone="no"?>
<!DOCTYPE svg PUBLIC "-//W3C//DTD SVG 1.1//EN" "http://www.w3.org/Graphics/SVG/1.1/DTD/svg11.dtd">
<svg width="100%" height="100%" viewBox="0 0 8 8" version="1.1" xmlns="http://www.w3.org/2000/svg" xmlns:xlink="http://www.w3.org/1999/xlink" xml:space="preserve" xmlns:serif="http://www.serif.com/" style="fill-rule:evenodd;clip-rule:evenodd;stroke-linejoin:round;stroke-miterlimit:2;">
    <g transform="matrix(1.13391,0,0,1.14933,-1.07125,-1.19463)">
        <rect x="0.945" y="1.039" width="7.055" height="6.961" style="fill:white;"/>
    </g>
    <g transform="matrix(1.13391,0,0,1.14933,-1.07125,-1.19463)">
        <path d="M8,1.039L0.945,1.039L0.945,8L8,8L8,1.039ZM7.118,1.909L7.118,7.13C7.118,7.13 1.827,7.13 1.827,7.13C1.827,7.13 1.827,1.909 1.827,1.909L7.118,1.909Z" style="fill:rgb(255,0,0);"/>
    </g>
    <g transform="matrix(1.33149,0,0,0.878405,-1.35929,0.254813)">
        <path d="M2.516,4.833L5.534,4.833L5.534,3.694L2.516,3.694L2.516,4.833Z" style="fill:rgb(255,0,0);"/>
    </g>
</svg>
