<svg version="1.1"
		 width="64"
		 height="64"
		 xmlns="http://www.w3.org/2000/svg"
		 viewBox="0 0 64 64">
	<path fill="#e5ab1a" d="M2.7 7.7H62v12.8H2.7z"/>
	<circle fill="#fff" cx="9.6" cy="14.1" r="4.6"/>
	<path fill="#aa7705" d="M53.5 7.7H62v12.8h-8.5z"/>
	<path fill="#e5ab1a" d="M2.7 25.2H62V38H2.7z"/>
	<circle fill="#fff" cx="9.6" cy="31.6" r="4.6"/>
	<path fill="#aa7705" d="M53.5 25.2H62V38h-8.5z"/>
	<path fill="#e5ab1a" d="M2.7 42.7H62v12.8H2.7z"/>
	<circle fill="#fff" cx="9.6" cy="49.1" r="4.6"/>
	<path fill="#aa7705" d="M53.5 42.7H62v12.8h-8.5z"/>

	<g transform="scale(2.66)">
		<circle cx="17.5" cy="17.5" fill="#eee" r="5.85"/>
		<path
			d="m17.5 24c-3.584 0-6.5-2.916-6.5-6.5s2.916-6.5 6.5-6.5 6.5 2.916 6.5 6.5-2.916 6.5-6.5 6.5zm0-11.5c-2.757 0-5 2.243-5 5s2.243 5 5 5 5-2.243 5-5-2.243-5-5-5z"/>
		<path
			d="m19.25 20c-.151 0-.303-.045-.436-.14l-1.75-1.25c-.197-.14-.314-.368-.314-.61v-3.25c0-.414.336-.75.75-.75s.75.336.75.75v2.864l1.436 1.025c.337.241.415.709.174 1.046-.146.206-.377.315-.61.315z"/>
	</g>
</svg>
