<svg viewBox="0 0 512 512"
		 width="64"
		 height="64"
		 xmlns="http://www.w3.org/2000/svg">
  <g>
    <path d="M414.75 85.55C320.49-1.05 173.88 5.15 87.27 99.4c-86.6 94.26-80.4 240.88 13.86 327.48 94.26 86.6 240.87 80.4 327.48-13.86a231.75 231.75 0 0061.1-156.8 230.36 230.36 0 00-74.96-170.67zm0 0" fill="#bddbff"/>
    <path fill="#3d9ae2" d="M424 75.53c-87.57-80.74-220.44-87-315.22-14.86a236.8 236.8 0 00-17.64 14.86C-9 167.08-15.94 322.48 75.62 422.6c86.01 94.06 229.67 106.72 330.8 29.16a234.05 234.05 0 0017.64-14.86c99.78-91.7 106.33-246.94 14.62-346.72a246.3 246.3 0 00-14.62-14.63zM413.87 408.3a245.25 245.25 0 00-38.58-26.24 402.51 402.51 0 0018.48-112.2h81.58a218.19 218.19 0 01-61.48 138.44zm-22.24 20.2c-2.1 1.65-4.27 3.17-6.43 4.73a222.98 222.98 0 01-9.45 6.54c-2.3 1.49-4.65 2.88-7 4.29a208.76 208.76 0 01-17.16 9.16 208.21 208.21 0 01-10.17 4.55c-2.33.95-4.66 1.9-7.01 2.73a216.61 216.61 0 0031.24-52.75 216.13 216.13 0 0128.05 18.97c-.7.6-1.36 1.23-2.07 1.78zm-228 24.73c-2.47-1.17-4.9-2.39-7.31-3.65a210.64 210.64 0 01-9.9-5.58c-2.3-1.36-4.6-2.73-6.82-4.2-3.25-2.1-6.42-4.35-9.55-6.63-2.13-1.55-4.28-3.05-6.35-4.67-.7-.55-1.37-1.18-2.08-1.74 8.8-7.05 18.15-13.4 27.95-19a216.68 216.68 0 0031.24 52.78c-2.33-.87-4.66-1.82-6.96-2.73a238.82 238.82 0 01-10.27-4.58zm-62.28-349.13c12 9.96 24.92 18.75 38.58 26.25a402.56 402.56 0 00-18.48 112.2H39.86a218.19 218.19 0 0161.48-138.45zm22.24-20.18c2.1-1.66 4.27-3.17 6.43-4.74 3.11-2.26 6.24-4.47 9.46-6.55 2.3-1.48 4.64-2.88 6.98-4.26 3.22-1.92 6.47-3.77 9.79-5.47a214.47 214.47 0 0117.56-8.25c2.32-.95 4.65-1.91 7-2.73a216.85 216.85 0 00-31.24 52.73 216.09 216.09 0 01-28.05-18.96c.7-.6 1.36-1.23 2.07-1.77zm228-24.75c2.47 1.18 4.9 2.4 7.31 3.66 3.35 1.76 6.64 3.64 9.9 5.57 2.3 1.37 4.6 2.73 6.82 4.2 3.25 2.1 6.41 4.37 9.55 6.64 2.13 1.54 4.28 3.04 6.35 4.67.7.55 1.36 1.17 2.08 1.74a216.33 216.33 0 01-27.95 19 216.68 216.68 0 00-31.24-52.78c2.33.87 4.66 1.81 6.96 2.73 3.46 1.45 6.88 2.96 10.27 4.57zm-107.63 73.58a217.44 217.44 0 01-69.64-16.07c17.38-41.18 42.07-69.7 69.64-76.93zm0 27.3v82.5h-95.23a379.46 379.46 0 0116.4-100.12A244.58 244.58 0 00243.93 160v.07zm0 109.8v82.57a244.49 244.49 0 00-78.9 17.56 379.71 379.71 0 01-16.33-100.12zm0 109.8v93.02c-27.53-7.24-52.21-35.77-69.64-76.94a217.27 217.27 0 0169.64-16.07zm27.3 0a217.27 217.27 0 0169.64 16.08c-17.38 41.17-42.07 69.63-69.64 76.94zm0-27.3v-82.5h95.22A379.45 379.45 0 01350.16 370a244.32 244.32 0 00-78.91-17.56zm0-109.8V160a244.5 244.5 0 0078.9-17.56 379.72 379.72 0 0116.32 100.12zm0-109.8v-93c27.52 7.23 52.21 35.75 69.64 76.93a217.44 217.44 0 01-69.64 16.07zm-149.81 137.1a402.3 402.3 0 0018.48 112.2 244.72 244.72 0 00-38.58 26.25 218.1 218.1 0 01-61.48-138.44zm272.32-27.3a402.34 402.34 0 00-18.49-112.2 243.88 243.88 0 0038.6-26.25 218.13 218.13 0 0161.47 138.45zm0 0"/>
  </g>
	<path stroke="#fff" stroke-width="29" d="M346 516h-.4a18 18 0 01-16.7-12.3l-76-228a18 18 0 0122.8-22.8l228 76a18 18 0 01.8 33.9L402.2 402l-39.4 102.4A18 18 0 01346 516z"/>
</svg>
