<svg xmlns="http://www.w3.org/2000/svg" viewBox="0 0 64 64" width="64" height="64">
  <path d="M9.4 3h45.3C58.2 3 61 5.8 61 9.4v45.3c0 3.5-2.8 6.4-6.4 6.4H9.4C5.8 61 3 58.2 3 54.6V9.4C3 5.8 5.8 3 9.4 3z" fill="#f78422"/>
  <path fill="#fff" d="M40.7 23.3c-7.9-7.9-18.3-12.2-29.4-12.2v8.2c8.9 0 17.3 3.5 23.7 9.8 6.3 6.3 9.8 14.7 9.8 23.7H53c-.1-11.2-4.4-21.7-12.3-29.5z"/>
  <path fill="#fff" d="M11.2 24.9v8.2c10.8 0 19.6 8.8 19.6 19.6H39c-.1-15.3-12.5-27.8-27.8-27.8z"/>
  <circle fill="#fff" cx="17" cy="47.1" r="5.9"/>
</svg>