<svg xmlns="http://www.w3.org/2000/svg" viewBox="0 0 512 512" width="64" height="64">
  <g stroke-width="16">
    <path fill="#ebba16" stroke="#666" d="M148.703 86.703V81.86a29.256 29.256 0 00-29.256-29.256H37.103A29.256 29.256 0 007.75 81.86v362.41A14.531 14.531 0 0022.378 458.8h408.619V116.056A29.256 29.256 0 00401.74 86.8H148.703z" stroke-width="15.5"/>
    <path fill="#ffde47" stroke="#888" d="M474.494 185.225H93.775c-13.853 0-25.866 8.912-28.675 21.313L9.397 451.63a14.531 13.175 0 0012.981 7.266h425.088a29.256 26.447 0 0029.062-23.638l27.222-220.584c1.84-15.694-11.722-29.45-29.16-29.45z" stroke-width="15.5"/>
  </g>
  <g transform="scale(4) translate(64)"
    stroke-width=".5"><circle fill="#4caf50" cx="32" cy="32" r="32"/><path fill="#fff" d="M54.748 26.293c-.632-.633-1.4-.949-2.304-.949H38.352V11.252c0-.903-.316-1.671-.949-2.304C36.771 8.316 36.003 8 35.1 8h-6.503c-.903 0-1.671.316-2.303.948-.633.633-.949 1.4-.949 2.304v14.092H11.252c-.903 0-1.671.317-2.304.949-.632.632-.948 1.4-.948 2.303v6.505c0 .903.316 1.67.948 2.303.633.632 1.4.948 2.304.948h14.092v14.093c0 .903.316 1.672.948 2.304.633.632 1.4.948 2.304.948H35.1c.904 0 1.671-.316 2.304-.948.632-.633.948-1.4.948-2.304V38.352h14.092c.904 0 1.672-.316 2.304-.948.632-.632.948-1.4.948-2.303v-6.505c0-.903-.315-1.671-.948-2.303z"/></g>
</svg>
