<svg xmlns="http://www.w3.org/2000/svg" viewBox="0 0 512 512" width="64" height="64">
  <g stroke-width="16">
    <path fill="#ebba16" stroke="#666" d="M148.703 86.703V81.86a29.256 29.256 0 00-29.256-29.256H37.103A29.256 29.256 0 007.75 81.86v362.41A14.531 14.531 0 0022.378 458.8h408.619V116.056A29.256 29.256 0 00401.74 86.8H148.703z" stroke-width="15.5"/>
    <path fill="#ffde47" stroke="#888" d="M474.494 185.225H93.775c-13.853 0-25.866 8.912-28.675 21.313L9.397 451.63a14.531 13.175 0 0012.981 7.266h425.088a29.256 26.447 0 0029.062-23.638l27.222-220.584c1.84-15.694-11.722-29.45-29.16-29.45z" stroke-width="15.5"/>
  </g>
</svg>
