<svg viewBox="0 -24 496 496"
		 width="64"
		 height="64"
		 xmlns="http://www.w3.org/2000/svg">
  <path fill="#f5f7fa" d="M109 8.5h323.4v32.9H109z"/>
  <path fill="#ebba16" d="M180.7 29.1v-4.4a27 27 0 00-27-27H77.8a27 27 0 00-27 27v334a13.4 13.4 0 0013.4 13.4H441v-316a27 27 0 00-27-26.9H180.7z"/>
  <path fill="#f5f7fa" d="M100 64h344v35H100z"/>
  <path fill="#ffde47" d="M176.2 86v-4.8a28.7 28.7 0 00-28.7-28.7H66.8A28.7 28.7 0 0038 81.2v355.4A14.3 14.3 0 0052.3 451h400.8V114.8A28.7 28.7 0 00424.4 86H176.2z"/>
  <g transform="translate(0 24)">
    <rect y="120" rx="15" width="496" height="328" fill="#816749"/>
    <rect y="120" rx="15" width="465" height="328" fill="#AB8A66"/>
    <path d="M200 272v16h96v-16c0-8.8 7.2-16 16-16s16 7.2 16 16v32a16 16 0 01-16 16H184a16 16 0 01-16-16v-32c0-8.8 7.2-16 16-16s16 7.2 16 16zm0 0" fill="#e6e9ed"/>
  </g>
</svg>
