<svg xmlns="http://www.w3.org/2000/svg" viewBox="0 0 64 64" width="64" height="64">
  <path fill="#fff" d="M32 26.7l18.9 18.9c4.7-4.8 7.6-11.3 7.6-18.6 0-7.4-3.1-14.2-8-19L32 26.5 13.5 8c-4.9 4.8-8 11.5-8 19 0 7.2 2.9 13.8 7.6 18.6L32 26.7z" />
  <circle fill="#fff" cx="32" cy="27" r="11" />
  <path fill="#666" d="M32 32c-2.9 0-5.3-2.4-5.3-5.3s2.4-5.3 5.3-5.3 5.3 2.4 5.3 5.3S34.9 32 32 32zm-2.7 5.3h5.3v21.3h-5.3V37.3z" />
  <path fill="#1d83d4" d="M13.1 7.8l3.8 3.8c-4 4-6.3 9.4-6.2 15.1 0 5.9 2.4 11.2 6.2 15.1l-3.8 3.8c-5-5-7.8-11.8-7.8-18.9 0-7.1 2.8-13.9 7.8-18.9zm37.8 0c5 5 7.8 11.8 7.8 18.9 0 7.1-2.8 13.9-7.8 18.9l-3.8-3.8c4-4 6.3-9.4 6.2-15.1 0-5.9-2.4-11.2-6.2-15.1l3.8-3.8zm-30.2 7.6l3.8 3.8c-2 2-3.1 4.7-3.1 7.5 0 2.9 1.2 5.6 3.1 7.5L20.7 38c-3-3-4.7-7.1-4.7-11.3 0-4.5 1.8-8.5 4.7-11.3zm22.6 0c3 3 4.7 7.1 4.7 11.3 0 4.2-1.7 8.3-4.7 11.3l-3.8-3.8c2-2 3.1-4.7 3.1-7.5s-1.1-5.5-3.1-7.5l3.8-3.8z" />
</svg>
