<svg xmlns="http://www.w3.org/2000/svg"
		 width="64"
		 height="64"
		 xmlns:xlink="http://www.w3.org/1999/xlink" viewBox="0 0 64 64">
  <linearGradient id="a">
    <stop offset="0" stop-color="#fff"/>
    <stop offset="1" stop-color="#fff" stop-opacity="0"/>
  </linearGradient>
  <linearGradient id="d" gradientTransform="matrix(2.06974 0 0 .9674 -.6 -2.6)" gradientUnits="userSpaceOnUse" x1="6.2" x2="9.9" y1="13.8" y2="66.8">
    <stop offset="0" stop-color="#fff" stop-opacity=".9"/>
    <stop offset="1" stop-color="#fffffe" stop-opacity="0"/>
  </linearGradient>
  <radialGradient id="b" cx="20.7" cy="37.5" gradientTransform="matrix(1.43958 -.03731 .24248 1.62503 -4.3 -10.5)" gradientUnits="userSpaceOnUse" r="30.9">
    <stop offset="0" stop-color="#babdb6"/>
    <stop offset="1" stop-color="#fff"/>
  </radialGradient>
  <linearGradient id="c" gradientUnits="userSpaceOnUse" x1="2.3" x2="1.8" y1="6.1" y2="51.4">
    <stop offset="0" stop-color="#babdb6"/>
    <stop offset="1" stop-color="#555753"/>
  </linearGradient>
  <linearGradient id="g" gradientUnits="userSpaceOnUse" x1="31.6" x2="32.9" xlink:href="#a" y1="40.3" y2="12.5"/>
  <linearGradient id="f" gradientTransform="matrix(1.79772 0 0 1.11379 -.6 -2.6)" gradientUnits="userSpaceOnUse" x1="13" x2="12.9" xlink:href="#a" y1="32.6" y2="46.7"/>
  <linearGradient id="e" gradientUnits="userSpaceOnUse" x1="30.8" x2="30.7" y1="49.7" y2="42.9">
    <stop offset="0" stop-color="#f57900"/>
    <stop offset="1" stop-color="#fcaf3e"/>
  </linearGradient>
  <g opacity=".5">
    <path d="M10.2 52.5c-1.7.8 9 .2 11.3.4 10.3-.2 24.3.4 32.7-.3-14.7-.2-29.4 0-44 0z" opacity=".1"/>
    <path d="M10 52c-1-.2-3.3.8-1 1.2 15 .5 29.9.1 44.8.2 1 .1 3.2-.8 1-1.2-15-.5-29.9-.1-44.8-.2z" opacity=".1"/>
    <path d="M9.8 51.4c-1 0-2.7.2-2.6 1.3.4 1 2 1.2 3.1 1.3H54c1 0 2.6-.2 2.6-1.3-.4-1-2-1.2-3.1-1.3H9.8z" opacity=".1"/>
    <path d="M9.7 51c-2-.4-4.4 1.6-1.9 2.9 5.6 1.5 11.3.2 17 .6 10.2-.2 20.6.3 30.7-.2 2.4-.2 1.8-3-.7-3.2-14.8-.5-29.6 0-44.4-.2h-.7z" opacity=".1"/>
    <path d="M9.5 50.4c-3.8-.7-4.6 4-.5 4.4 15.8.1 31.9.8 47.4-.2 3.5-1.4-1-5.1-3.8-4.2h-43z" opacity=".1"/>
    <path d="M9.4 49.9c-5-.8-4.8 5.7.3 5.5 15.6-.2 31.9 1 47.1-.4 4-1.7-1-6.1-4.3-5.2H9.4z" opacity=".1"/>
    <path d="M9.3 49.3c-5.8-.8-5.4 6.8.4 6.7 15.7-.2 32 1 47.3-.4 4.7-1.8-.5-7.4-4.6-6.3H9.3z" opacity=".1"/>
    <path d="M9.8 48.8c-6.3-1.2-7.4 6.8-.7 7.6 16 0 32.6 1 48.3-.3 5.1-2-.3-8.4-5.1-7.4H9.8z" opacity=".1"/>
    <path d="M9 48.3c-7.1-.8-6.4 8.7.8 8.8 15.9-.3 32.4 1 47.9-.5 5.7-2.2 0-9.5-5.5-8.4H9z" opacity=".1"/>
    <path d="M8.8 47.7c-7.4-.8-7.2 9.1.3 9.8 16.2 0 32.8 1 48.6-.3 6.7-2 .7-10.8-5.6-9.5H8.8z" opacity=".1"/>
  </g>
  <path d="M6.7 52c0 .5.7 1.1 1.2 1.1h42.8c.5 0 1-.6 1-1.1l-1.2-37.2c0-.5-.7-1.1-1.2-1.1H31.2c-.7 0-1.7-.4-2-1.5l-.8-4c-.2-1-1.2-1.4-1.7-1.4H6.5c-.6 0-1.1.6-1 1.2z" fill="url(#b)" stroke="url(#c)" stroke-linecap="round" stroke-linejoin="round" stroke-width="1.4"/>
  <path d="M8.8 52.2c0 .4-.2.7-.6.6-.5-.2-.8-.4-.8-.9L6.1 8.2c0-.4.2-.7.7-.7h19.6c.5 0 1.3.3 1.6 1.7l.8 3.9c-.6-.7-.6-.7-.9-1.6l-.5-1.7c-.3-1-1-1.1-1.4-1.1H8.4c-.4 0-.7.2-.7.7l1.3 43-.2-.2z" display="block" fill="url(#d)"/>
  <path d="M49.6 15c0-.2-.2-.4-.3-.4H30.7s1.4.8 3.2.8l15.7.1V15z" fill="#fff" opacity=".8"/>
  <g fill="#729fcf" opacity=".6" stroke="#000" stroke-linecap="round" stroke-linejoin="round">
    <path d="M7.7 30H49M7.4 24.5H49M7.4 16.3H49M8 43.6h41M8 46.4h41M7.4 21.8H49M7.4 19H49M7.3 13.6H28M7.2 10.9h20.2M7.8 38.2H49M7.8 35.4H49M7.7 32.7H49M7.7 27.2H49M7.8 40.9H49M8 49h41" opacity=".1" stroke-width="1.3645"/>
  </g>
  <path d="M54.9 53.1c1.5 0 2.6-1.5 2.7-3.2C58.7 34.2 60 21 60 21c.1-.3-.2-.6-.6-.6h-47L9.9 50c-.1 1.4-.6 2.5-2 3h47z" opacity=".9" stroke="#ce5c00" stroke-width="1.4" stroke-linejoin="round" display="block" fill="url(#e)"/>
  <path d="M13.7 21.7h44.7L56.3 49c-.1 1.5-.6 2-2.6 2H11c.3-.5.5-1.4.5-1.4z" fill="none" opacity=".7" stroke="url(#f)" stroke-linecap="round" stroke-width="1.4"/>
  <g fill="#fff">
    <path d="M29.5 43.7a3.2 3.2 0 11-6.4 0 3.2 3.2 0 016.4 0zM25.3 33.8v3.5a8 8 0 018 7.9h3.5c0-6.3-5.2-11.4-11.5-11.4z"/>
    <path d="M26.7 24.7h-.2v5.6h.2a13 13 0 0113 12.9h5.6c0-10.3-8.4-18.5-18.6-18.5z"/>
  </g>
  <path d="M13.7 21.3L12 42.7S23.4 37 37.6 37s21.2-15.7 21.2-15.7z" fill="url(#g)" fill-rule="evenodd" opacity=".4"/>
</svg>
