<svg height="64" width="64" xmlns="http://www.w3.org/2000/svg" xmlns:xlink="http://www.w3.org/1999/xlink"><linearGradient id="a"><stop offset="0" stop-color="#fff"/><stop offset="1" stop-color="#fff" stop-opacity="0"/></linearGradient><linearGradient id="b" gradientTransform="matrix(2.06974 0 0 .967403 -.634093 -2.608467)" gradientUnits="userSpaceOnUse" x1="6.229796" x2="9.898089" y1="13.773066" y2="66.834053"><stop offset="0" stop-color="#fff" stop-opacity=".876289"/><stop offset="1" stop-color="#fffffe" stop-opacity="0"/></linearGradient><radialGradient id="c" cx="20.706017" cy="37.517986" gradientTransform="matrix(1.439582 -.03731242 .242476 1.625027 -4.308162 -10.53233)" gradientUnits="userSpaceOnUse" r="30.905205"><stop offset="0" stop-color="#babdb6"/><stop offset="1" stop-color="#fff"/></radialGradient><linearGradient id="d" gradientUnits="userSpaceOnUse" x1="2.31598660327" x2="1.83356075606" y1="6.13615222841" y2="51.41968176263"><stop offset="0" stop-color="#babdb6"/><stop offset="1" stop-color="#555753"/></linearGradient><linearGradient id="e" gradientUnits="userSpaceOnUse" x1="31.58944002797" x2="32.88856791232" xlink:href="#a" y1="40.25995344174" y2="12.52051498446"/><linearGradient id="f" gradientTransform="matrix(1.797719 0 0 1.113785 -.634093 -2.608467)" gradientUnits="userSpaceOnUse" x1="13.035696" x2="12.853771" xlink:href="#a" y1="32.567184" y2="46.689312"/><linearGradient id="g" gradientUnits="userSpaceOnUse" x1="30.8252959559" x2="30.67432041082" y1="49.6604485875" y2="42.9232100875"><stop offset="0" stop-color="#f57900"/><stop offset="1" stop-color="#fcaf3e"/></linearGradient><g opacity=".5" transform="matrix(1.38417196066 0 .24721947022 1.25536414756 -10.27021545608 -1.28238613788)"><path d="m7.125 42.875c-1.307931.607054 6.496333.132633 8.151786.28125 7.451753-.182588 17.434165.342614 23.629464-.21875-10.578382-.203464-21.194645-.06947-31.78125-.0625z" opacity=".066667"/><path d="m7.0625 42.46875c-.7224016-.145839-2.4876509.623706-.90625.9375 10.770482.354788 21.589501.08607 32.375.125.728045.136183 2.439429-.631785.875-.9375-10.754625-.35479-21.573373-.086035-32.34375-.125z" opacity=".066667"/><path d="m7 41.9375c-.761111.080014-1.9471236.19712-2.09375 1.0625.1492297.867799 1.3309849.981311 2.09375 1.0625 6.264716.072904 12.533658.010428 18.8.03125 4.253851-.020537 8.510272.04127 12.7625-.03125.761111-.080014 1.947124-.19712 2.09375-1.0625-.14923-.867799-1.330985-.981311-2.09375-1.0625-6.264716-.072904-12.533658-.010428-18.8-.03125-4.253766.020537-8.510394-.04127-12.7625.03125z" opacity=".066667"/><path d="m6.96875 41.59375c-1.3167567-.270461-3.4167963 1.337601-1.75 2.34375 3.8344643 1.187505 8.137485.155031 12.138394.5 7.402162-.140149 14.872935.271118 22.236606-.1875 1.765243-.105919 1.729608-2.431058-.03125-2.5-10.640326-.45157-21.38408-.052227-32.0625-.1875-.1774523-.001402-.3541357.021824-.53125.03125z" opacity=".066667"/><path d="m6.9375 41.1875c-2.6208817-.576036-3.896254 3.178505-.96875 3.5 11.362745.096713 22.913898.586803 34.21875-.1875 2.734498-1.104915.045104-4.063234-2.125-3.34375-10.37457.022664-20.752095-.044134-31.125.03125z" opacity=".066667"/><path d="m6.90625 40.75c-3.5227308-.603543-4.2390718 4.53727-.53125 4.4375 11.313718-.182482 22.881776.779566 34.09375-.34375 3.05149-1.357619.177559-4.882502-2.40625-4.125-10.384968.023158-20.772953-.044802-31.15625.03125z" opacity=".066667"/><path d="m6.90625 40.3125c-4.0346787-.624552-4.8229055 5.366761-.59375 5.28125 11.340802-.095413 22.970496.774298 34.21875-.3125 3.615969-1.396583.693937-5.841013-2.46875-5-10.38497.023118-20.772951-.044747-31.15625.03125z" opacity=".066667"/><path d="m7.375 39.875c-4.3500809-.968714-6.3152858 5.476008-1.59375 6.09375 11.577635.049338 23.437265.823983 34.9375-.28125 4.006164-1.615035.989022-6.673818-2.65625-5.84375-10.226568.021225-20.473278-.04219-30.6875.03125z" opacity=".066667"/><path d="m6.84375 39.46875c-5.0203948-.614244-5.819651 6.944744-.65625 7 11.514387-.198354 23.275581.816478 34.6875-.375 4.45393-1.753641 1.291414-7.588088-2.8125-6.65625-10.405802.023156-20.81462-.044802-31.21875.03125z" opacity=".066667"/><path d="m6.8125 39.03125c-5.2165958-.610338-6.53658291 7.239245-1.15625 7.78125 11.649065.083287 23.546359.767896 35.125-.25 5.126582-1.57789 2.072637-8.606024-2.71875-7.5625-10.416217.023191-20.835455-.04485-31.25.03125z" opacity=".066667"/></g><path d="m6.7360756 51.979311c.0297408.568049.6275421 1.136099 1.1955913 1.136099h42.7458451c.568046 0 1.106357-.56805 1.076616-1.136099l-1.27778-37.150989c-.029741-.568047-.627532-1.136107-1.19558-1.136107h-18.108159c-.661863 0-1.684444-.430623-1.912549-1.510004l-.834246-3.9476074c-.212138-1.0038292-1.203784-1.4161999-1.771833-1.4161999h-20.1658126c-.5680605 0-1.1063682.5680486-1.0766276 1.1360973z" fill="url(#c)" stroke="url(#d)" stroke-linecap="round" stroke-linejoin="round" stroke-width="1.364504"/><path d="m8.8463663 52.220291c.0222995.426036-.2468542.710059-.680321.568047l0 0c-.4334778-.142011-.7323718-.426035-.7546834-.852073l-1.2931672-43.7521193c-.0222999-.4260365.2253967-.6833034.6514332-.6833034l19.6789451-.0650783c.426036 0 1.27164.4099962 1.545896 1.8041223l.782528 3.8418087c-.582717-.634845-.571991-.654442-.869951-1.578331l-.554118-1.7181586c-.298895-.9928771-.952698-1.135131-1.378734-1.135131h-17.5854197c-.4260358 0-.6951894.2840245-.6728787.7100725l1.279912 43.0021561-.1494413-.142012z" display="block" fill="url(#b)"/><path d="m42.417183 8.5151772c.005084-.097113-.128161-.2469882-.235117-.2470056l-13.031401-.0021189s.911714.5879545 2.201812.5962436l11.053497.0710204c.011086-.2117278.002721-.2560322.011209-.4181395z" fill="#fff" opacity=".827451" transform="matrix(1.420127 0 .07435526 1.420127 -11.26443 2.834212)"/><g fill="#729fcf" opacity=".639216" stroke="#000" stroke-linecap="round" stroke-linejoin="round" transform="matrix(1.364504 0 0 1.364504 .566088 -.809824)"><path d="m5.2265927 22.5625h30.2655803" opacity=".113636"/><path d="m5.0421736 18.5625h30.4469304" opacity=".113636"/><path d="m4.9806965 12.5625h30.5073605" opacity=".113636"/><path d="m5.3861577 32.5625h30.1087233" opacity=".113636"/><path d="m5.5091398 34.5625h29.9877532" opacity=".113636"/><path d="m5.0421736 16.5625h30.4469304" opacity=".113636"/><path d="m5.0114345 14.5625h30.4771455" opacity=".113636"/><path d="m4.9220969 10.5625h15.2808151" opacity=".113636"/><path d="m4.8737534 8.5624999h14.7837336" opacity=".113636"/><path d="m5.3246666 28.5625h30.1692094" opacity=".113636"/><path d="m5.2880638 26.5625h30.2051202" opacity=".113636"/><path d="m5.2265927 24.5625h30.2655803" opacity=".113636"/><path d="m5.1958537 20.5625h30.2957953" opacity=".113636"/><path d="m5.3246666 30.5625h30.1692094" opacity=".113636"/><path d="m5.5091398 36.5625h29.9877532" opacity=".113636"/></g><path d="m54.850877 53.102575c1.560847-.060125 2.678625-1.495904 2.793187-3.167021 1.080397-15.758229 2.264203-28.971079 2.264203-28.971079.098456-.337693-.229115-.675384-.655153-.675384h-46.89958s-2.5247681 29.837461-2.5247681 29.837461c-.1563109 1.340033-.6358691 2.462545-2.1147571 2.979685l47.1368682-.003662z" style="opacity:.9;stroke:#ce5c00;stroke-width:1.364504;stroke-linejoin:round;display:block;fill:url(#g)"/><path d="m13.69295 21.655262 44.743585.088439-2.147792 27.29278c-.115058 1.462081-.614952 1.948805-2.555246 1.948805-2.553672 0-39.131203-.044219-42.838252-.044219.318746-.437748.455411-1.34898.457241-1.370797z" fill="none" opacity=".72" stroke="url(#f)" stroke-linecap="round" stroke-width="1.364504"/><g fill="#fff" transform="matrix(.311295 0 0 .311295 -61.82032 -100.6398)"><path d="m293.368 463.785c0 5.676-4.6 10.275-10.273 10.275-5.672 0-10.273-4.6-10.273-10.275 0-5.672 4.602-10.271 10.273-10.271 5.673-.001 10.273 4.599 10.273 10.271z"/><path d="m279.883 431.896c-.105 0-.213.008-.32.01v11.129c.107-.002.215-.008.32-.008 14.113 0 25.562 11.385 25.679 25.467h11.131c-.117-20.229-16.548-36.598-36.81-36.598z"/><path d="m284.364 402.58c-.174 0-.346.01-.52.014v18.059c.174-.004.346-.014.52-.014 22.9 0 41.48 18.473 41.666 41.326h18.061c-.193-32.829-26.855-59.385-59.727-59.385z"/></g><path d="m13.692955 21.326773-1.591895 21.345306s11.320137-5.660069 25.470307-5.660069 21.225255-15.685237 21.225255-15.685237z" fill="url(#e)" fill-rule="evenodd" opacity=".36"/></svg>