<svg xmlns="http://www.w3.org/2000/svg" viewBox="0 0 64 64" width="64" height="64">
  <path d="M62 2v49.1H51.1L34.8 62V51.1H2L2.1 2H62z" fill="#fff" stroke="#666" stroke-width="2" stroke-linejoin="round" />
  <path d="M47.5 12.6h.2c.3 0 .5.1.8.2.1 0 .2.1.3.1h.1c.1.1.2.1.3.2.3.2.5.4.7.7.1.2.2.3.3.5 3.3 7.2 6.2 14.6 9.4 21.8.2.5.3 1 .2 1.6-.1 1.1-.8 2.1-1.9 2.5-.3.1-.6.2-.9.2-.4 0-.7 0-1.1-.1-.4-.1-.7-.3-1-.5-.4-.3-.7-.7-.9-1.1-.7-1.5-1.4-2.9-2-4.5h-9.1c-.6 1.5-1.2 2.9-1.9 4.3-.2.5-.5.9-1 1.2-.3.2-.5.3-.8.4-1 .3-2.2.1-3-.6-.3-.2-.5-.5-.7-.9-.2-.3-.3-.7-.3-1-.1-.5 0-.9.2-1.5 2.9-7.4 6.2-14.6 9.4-21.9.1-.2.2-.4.3-.5.2-.3.4-.5.7-.7.1-.1.2-.1.3-.2 0 0 .1 0 .1-.1.1 0 .2-.1.2-.1.2-.1.5-.2.8-.2.1.2.2.2.3.2zm.1 11.1c-.6 1.5-1.2 2.9-1.9 4.4h3.6c-.5-1.5-1-3-1.7-4.4z" fill="#d86600"/>
  <path d="M21.8 40.3l-3.1-4.9c1.4-.2 2.3-.4 3.3-.6 4.3-1.1 7.2-4.1 7.2-8.6 0-4.4-2.1-7.5-6-8.4-.4 2.8-1.1 5.7-2 8.9-2 6.8-5.1 11.3-9.1 11.3-4.2 0-7.4-4.6-7.4-10.4 0-8.1 7-15 16-15 8.7 0 14.1 6 14.1 13.7.1 7.3-4.1 12.6-13 14zm-9.5-8.7c1.4 0 2.4-2.1 3.6-6 .7-2.3 1.3-5 1.7-7.6-5 1.4-7.5 5.9-7.5 9.2-.1 2.9 1 4.4 2.2 4.4z" fill="#0076aa"/>
</svg>
