<svg width="11" height="16" xmlns="http://www.w3.org/2000/svg"><path d="m5.5 16 5.36-5.212a.475.462 0 0 0 0-.653.475.462 0 0 0-.67 0l-4.69 4.56-4.689-4.56a.475.462 0 0 0-.672 0 .475.462 0 0 0 0 .653z" class="off"/><path d="M10.524 6a.47.47 0 0 0 .334-.135h.002a.475.462 0 0 0 .002-.002.47.473 0 0 0 .101-.147.452.455 0 0 0 .035-.172.475.462 0 0 0 .002-.01.433.436 0 0 0-.037-.17.475.462 0 0 0 0-.004.461.464 0 0 0-.103-.147L5.837.327 5.83.323 5.5 0l-.335.327L.139 5.213a.443.446 0 0 0-.071.092l-.01.012a.475.462 0 0 0-.007.012.436.44 0 0 0-.04.113.473.473 0 0 0-.01.06v.004a.475.462 0 0 0 0 .002.434.438 0 0 0 0 .049v.014a.475.462 0 0 0 .002.007.519.519 0 0 0 .009.055v.002a.475.462 0 0 0 0 .002c.002.014.008.028.013.04a.475.462 0 0 0 .01.035.475.462 0 0 0 .001.003l.006.009a.475.462 0 0 0 .022.045.475.462 0 0 0 .004.006l.028.04a.491.495 0 0 0 .045.052c.082.08.197.133.334.133z" class="on"/></svg>