<svg width="11" height="16" xmlns="http://www.w3.org/2000/svg"><path d="M5.5 0 .14 5.212a.475.462 0 0 0 0 .653.475.462 0 0 0 .67 0l4.69-4.56 4.69 4.56a.475.462 0 0 0 .67 0 .475.462 0 0 0 0-.653z" class="off"/><path d="M.475 10a.468.472 0 0 0-.334.135H.14a.475.462 0 0 0-.002.002.47.473 0 0 0-.101.147.452.455 0 0 0-.035.172.475.462 0 0 0-.002.01c0 .057.012.115.037.17a.475.462 0 0 0 0 .004.445.445 0 0 0 .103.147l5.023 4.886.007.004.33.323.335-.327 5.026-4.885c.016-.016.03-.034.044-.05a.443.446 0 0 0 .027-.042l.01-.013a.475.462 0 0 0 .007-.012.436.44 0 0 0 .039-.113c.005-.02.01-.04.01-.06v-.004a.475.462 0 0 0 0-.002.435.438 0 0 0 0-.049v-.014a.475.462 0 0 0 0-.007.444.447 0 0 0-.01-.055v-.002a.475.462 0 0 0 0-.002c-.003-.014-.008-.028-.012-.04a.475.462 0 0 0-.011-.035.475.462 0 0 0-.002-.003l-.005-.009a.475.462 0 0 0-.021-.045.475.462 0 0 0-.004-.006l-.03-.04a.492.496 0 0 0-.044-.052.474.477 0 0 0-.335-.133z" class="on"/></svg>