<svg viewBox="0 -18 512 512" xmlns="http://www.w3.org/2000/svg" width="64" height="64">
  <path d="M502.578 364.8L321.7 38.7C308.2 14.7 283.598 0 256 0s-52.2 14.7-65.7 38.7L9.423 364.8c-12.902 23.4-12.602 51.302 1.2 74.4 13.5 23.1 37.8 36.902 64.5 36.902h361.757c26.7 0 51-13.801 64.5-36.903 13.8-23.097 14.101-51 1.2-74.398zm0 0" fill="#fdbf00"/>
  <path d="M211 86.102v225h90v-225zm0 0M256 341.102c-24.902 0-45 20.097-45 45 0 24.898 20.098 45 45 45s45-20.102 45-45c0-24.903-20.098-45-45-45zm0 0" fill="#444"/>
</svg>
